<?xml version="1.0" encoding="UTF-8" standalone="no"?>
<!-- Created with Inkscape (http://www.inkscape.org/) -->

<svg
   xmlns:dc="http://purl.org/dc/elements/1.1/"
   xmlns:cc="http://creativecommons.org/ns#"
   xmlns:rdf="http://www.w3.org/1999/02/22-rdf-syntax-ns#"
   xmlns:svg="http://www.w3.org/2000/svg"
   xmlns="http://www.w3.org/2000/svg"
   xmlns:sodipodi="http://sodipodi.sourceforge.net/DTD/sodipodi-0.dtd"
   xmlns:inkscape="http://www.inkscape.org/namespaces/inkscape"
   width="744.09448819"
   height="1052.3622047"
   id="svg3236"
   version="1.1"
   inkscape:version="0.48.3.1 r9886"
   sodipodi:docname="player-Side2.svg">
  <defs
     id="defs3238" />
  <sodipodi:namedview
     id="base"
     pagecolor="#ffffff"
     bordercolor="#666666"
     borderopacity="1.0"
     inkscape:pageopacity="0.0"
     inkscape:pageshadow="2"
     inkscape:zoom="0.30964735"
     inkscape:cx="46.705265"
     inkscape:cy="921.28872"
     inkscape:document-units="px"
     inkscape:current-layer="layer1"
     showgrid="false"
     inkscape:window-width="1917"
     inkscape:window-height="1058"
     inkscape:window-x="0"
     inkscape:window-y="19"
     inkscape:window-maximized="0" />
  <metadata
     id="metadata3241">
    <rdf:RDF>
      <cc:Work
         rdf:about="">
        <dc:format>image/svg+xml</dc:format>
        <dc:type
           rdf:resource="http://purl.org/dc/dcmitype/StillImage" />
        <dc:title />
      </cc:Work>
    </rdf:RDF>
  </metadata>
  <g
     inkscape:label="Layer 1"
     inkscape:groupmode="layer"
     id="layer1">
    <path
       style="fill:#73615d;fill-opacity:1;stroke:#000000;stroke-width:0.57071579px;stroke-linecap:butt;stroke-linejoin:miter;stroke-opacity:1"
       d="M 297.27414,112.8775 267.38008,121.43621 267.38008,85.686183 297.31509,94.490598 z"
       id="path3309"
       inkscape:connector-curvature="0" />
    <path
       style="fill:#4f4340;fill-opacity:1;stroke:#000000;stroke-width:0.57071579px;stroke-linecap:butt;stroke-linejoin:miter;stroke-opacity:1"
       d="M 267.42103,121.39525 267.25723,85.604279 203.45593,55.382616 203.12832,90.845978 z"
       id="path3311"
       inkscape:connector-curvature="0" />
    <path
       style="fill:#3d343a;fill-opacity:1;stroke:#000000;stroke-width:0.57071579px;stroke-linecap:butt;stroke-linejoin:miter;stroke-opacity:1"
       d="M 232.94048,69.305874 232.94048,22.949606 221.47426,20.083049 221.47426,64.06418 z"
       id="path3313"
       inkscape:connector-curvature="0" />
    <path
       style="fill:#42383f;fill-opacity:1;stroke:#000000;stroke-width:0.57071579px;stroke-linecap:butt;stroke-linejoin:miter;stroke-opacity:1"
       d="M 232.94048,69.387777 232.85858,22.703902 267.25723,35.808149 267.17532,85.768086 z"
       id="path3315"
       inkscape:connector-curvature="0" />
    <path
       style="fill:#3c333b;fill-opacity:1;stroke:#000000;stroke-width:0.57071579px;stroke-linecap:butt;stroke-linejoin:miter;stroke-opacity:1"
       d="M 221.47426,20.083049 203.21022,20.574459 203.37402,55.464514 221.47426,63.982276 z"
       id="path3317"
       inkscape:connector-curvature="0" />
    <path
       style="fill:#554952;fill-opacity:1;stroke:#000000;stroke-width:0.57071579px;stroke-linecap:butt;stroke-linejoin:miter;stroke-opacity:1"
       d="M 297.23319,94.531548 267.25723,85.604279 267.25723,-114.80878 297.31509,-105.79962 z"
       id="path3319"
       inkscape:connector-curvature="0" />
    <path
       style="fill:#473c44;fill-opacity:1;stroke:#000000;stroke-width:0.57071579px;stroke-linecap:butt;stroke-linejoin:miter;stroke-opacity:1"
       d="M 267.25723,35.726244 232.85858,22.703902 233.10428,-60.835669 267.25723,-64.60314 z"
       id="path3321"
       inkscape:connector-curvature="0" />
    <path
       style="fill:#372f36;fill-opacity:1;stroke:#000000;stroke-width:0.57071579px;stroke-linecap:butt;stroke-linejoin:miter;stroke-opacity:1"
       d="M 232.94048,22.867703 221.63807,20.083049 221.63807,-58.460522 233.26809,-60.835669 z"
       id="path3323"
       inkscape:connector-curvature="0" />
    <path
       style="fill:#453b44;fill-opacity:1;stroke:#000000;stroke-width:0.57071579px;stroke-linecap:butt;stroke-linejoin:miter;stroke-opacity:1"
       d="M 221.63807,20.164953 203.04642,20.574459 203.29213,-49.287552 221.55617,-58.460522 z"
       id="path3325"
       inkscape:connector-curvature="0" />
    <path
       style="fill:#463c45;fill-opacity:1;stroke:#000000;stroke-width:0.57071579px;stroke-linecap:butt;stroke-linejoin:miter;stroke-opacity:1"
       d="M 221.39236,-92.941072 221.63807,-58.37862 203.29213,-49.369454 203.04642,-84.013807 z"
       id="path3327"
       inkscape:connector-curvature="0" />
    <path
       style="fill:#443a43;fill-opacity:1;stroke:#000000;stroke-width:0.57071579px;stroke-linecap:butt;stroke-linejoin:miter;stroke-opacity:1"
       d="M 233.02238,-60.835669 221.55617,-58.624326 221.31046,-93.022974 232.85858,-98.428474 z"
       id="path3329"
       inkscape:connector-curvature="0" />
    <path
       style="fill:#3b323a;fill-opacity:1;stroke:#000000;stroke-width:0.57071579px;stroke-linecap:butt;stroke-linejoin:miter;stroke-opacity:1"
       d="M 233.02238,-98.346572 267.25723,-114.64498 267.25723,-64.60314 233.10428,-60.917571 z"
       id="path3331"
       inkscape:connector-curvature="0" />
    <path
       style="fill:#5b6477;fill-opacity:1;stroke:#000000;stroke-width:0.57071579px;stroke-linecap:butt;stroke-linejoin:miter;stroke-opacity:1"
       d="M 203.29213,72.418135 176.59222,72.336232 C 176.59222,72.336232 175.36371,72.418135 175.36371,71.844823 175.36371,71.27151 175.19989,53.826486 175.19989,53.826486 L 203.37402,54.5636 z"
       id="path3333"
       inkscape:connector-curvature="0" />
    <path
       style="fill:#715f5e;fill-opacity:1;stroke:#000000;stroke-width:0.57071579px;stroke-linecap:butt;stroke-linejoin:miter;stroke-opacity:1"
       d="M 151.93985,87.569916 155.78923,64.391782 173.64376,53.335077 176.75603,50.059014 175.4456,53.744583 175.0361,53.744583 175.5275,72.254329 176.91982,72.581937 172.82475,75.858 z"
       id="path3335"
       inkscape:connector-curvature="0" />
    <path
       style="fill:#383037;fill-opacity:1;stroke:#000000;stroke-width:0.57071579px;stroke-linecap:butt;stroke-linejoin:miter;stroke-opacity:1"
       d="M 155.78923,64.309884 151.20274,49.895212 176.83793,49.813309 173.56186,53.41698 z"
       id="path3337"
       inkscape:connector-curvature="0" />
    <path
       style="fill:#3a3138;fill-opacity:1;stroke:#000000;stroke-width:0.57071579px;stroke-linecap:butt;stroke-linejoin:miter;stroke-opacity:1"
       d="M 151.20274,49.813309 138.99942,67.749749 155.87113,64.309884 z"
       id="path3339"
       inkscape:connector-curvature="0" />
    <path
       style="fill:#756360;fill-opacity:1;stroke:#000000;stroke-width:0.57071579px;stroke-linecap:butt;stroke-linejoin:miter;stroke-opacity:1"
       d="M 138.99942,67.790698 134.45388,91.378338 151.93985,87.528968 155.83019,64.26893 z"
       id="path3341"
       inkscape:connector-curvature="0" />
    <path
       style="fill:#372f36;fill-opacity:1;stroke:#000000;stroke-width:0.57071579px;stroke-linecap:butt;stroke-linejoin:miter;stroke-opacity:1"
       d="M 151.28465,49.895212 138.87657,67.995453 -92.730351,94.677838 16.493812,50.548026 19.505291,50.721764 z"
       id="path3343"
       inkscape:connector-curvature="0" />
    <path
       style="fill:#776461;fill-opacity:1;stroke:#000000;stroke-width:0.57071579px;stroke-linecap:butt;stroke-linejoin:miter;stroke-opacity:1"
       d="M 134.46287,91.550518 139.03801,67.806141 -92.672447,94.677838 -92.556617,117.0323 z"
       id="path3345"
       inkscape:connector-curvature="0" />
    <path
       style="fill:#525a71;fill-opacity:1;stroke:#000000;stroke-width:0.57071579px;stroke-linecap:butt;stroke-linejoin:miter;stroke-opacity:1"
       d="M 20.663557,50.721764 20.721472,28.193554 203.32159,33.984871 203.32159,54.54403 175.29163,53.791159 176.68154,49.679328 z"
       id="path3347"
       inkscape:connector-curvature="0" />
    <path
       style="fill:#495062;fill-opacity:1;stroke:#000000;stroke-width:0.57071579px;stroke-linecap:butt;stroke-linejoin:miter;stroke-opacity:1"
       d="M 20.721472,50.663853 20.721472,28.193554 -127.07285,13.715271 -126.95702,29.23599 17.478334,50.374288 z"
       id="path3349"
       inkscape:connector-curvature="0" />
    <path
       style="fill:#040404;fill-opacity:1;stroke:#000000;stroke-width:0.57071579px;stroke-linecap:butt;stroke-linejoin:miter;stroke-opacity:1"
       d="M 1.899704,42.961403 2.363002,34.013823 0.13334697,33.926955 0.10439497,37.430699 -3.8047385,36.735744 -3.9205683,33.318869 -5.3973504,33.376779 -5.9764782,36.706786 -6.092308,41.745231 -5.3683983,42.266449 C -5.3683983,42.266449 -4.325962,42.613923 -4.325962,42.411228 -4.325962,42.208532 -3.9205683,38.588961 -3.9205683,38.588961 L -3.109781,38.588961 0.10439497,38.936441 -0.38786603,43.048272 z"
       id="path3351"
       inkscape:connector-curvature="0" />
    <path
       style="fill:#040404;fill-opacity:1;stroke:#000000;stroke-width:0.57071579px;stroke-linecap:butt;stroke-linejoin:miter;stroke-opacity:1"
       d="M -6.7003985,41.803141 -8.3219625,41.716273 -9.0458722,39.081226 -12.433793,38.936441 -13.534144,40.181572 -13.621011,41.021312 -14.489713,41.021312 -15.271538,40.384268 -11.130755,32.450171 -9.5960584,32.39226 z"
       id="path3353"
       inkscape:connector-curvature="0" />
    <path
       style="fill:#495062;fill-opacity:1;stroke:#000000;stroke-width:0.57071579px;stroke-linecap:butt;stroke-linejoin:miter;stroke-opacity:1"
       d="M -9.8566701,37.34383 -11.420319,37.372789 -11.30449,35.924956 -10.638484,35.548523 -9.9145744,35.693309 z"
       id="path3355"
       inkscape:connector-curvature="0" />
    <path
       style="fill:#040404;fill-opacity:1;stroke:#000000;stroke-width:0.57071579px;stroke-linecap:butt;stroke-linejoin:miter;stroke-opacity:1"
       d="M -15.908591,40.586969 C -15.908591,40.326357 -15.329453,31.639389 -15.329453,31.639389 L -16.835197,31.639389 -19.238586,34.477131 -19.730857,34.41922 -21.728852,31.089213 -23.697895,30.42321 -24.334948,39.486618 -22.973986,40.326357 C -22.973986,40.326357 -22.221113,39.747223 -22.221113,39.631402 -22.221113,39.515575 -22.076331,34.361304 -22.076331,34.361304 L -21.555118,34.361304 -19.672932,37.228003 -19.209634,37.372789 -18.051378,35.664351 -17.443277,35.577482 -17.47224,40.731748 z"
       id="path3357"
       inkscape:connector-curvature="0" />
    <path
       style="fill:#040404;fill-opacity:1;stroke:#000000;stroke-width:0.57071579px;stroke-linecap:butt;stroke-linejoin:miter;stroke-opacity:1"
       d="M -25.522167,39.544528 -27.317475,39.544528 -27.230598,33.753218 -27.809736,33.811127 -29.112773,35.461655 -30.010428,35.606434 -31.342428,33.376779 -31.921566,33.318869 -31.834699,37.922964 -32.413827,38.241487 -34.151221,38.299397 -33.456263,29.409733 -32.384875,29.409733 -31.342428,30.046778 -29.460252,33.28991 -28.852172,33.232 -26.680422,30.481127 -24.943039,30.481127 z"
       id="path3359"
       inkscape:connector-curvature="0" />
    <path
       style="fill:#040404;fill-opacity:1;stroke:#000000;stroke-width:0.57071579px;stroke-linecap:butt;stroke-linejoin:miter;stroke-opacity:1"
       d="M -35.280524,38.386265 -34.759311,29.409733 -40.203142,28.68582 -40.232094,30.481127 -37.307482,30.741732 -36.902099,31.118171 -36.902099,32.710782 -40.261057,32.131649 -40.290009,33.811127 -37.017918,34.390262 -36.960014,36.069742 -40.869147,36.214527 C -40.869147,36.214527 -41.071844,37.807138 -40.840185,37.749222 -40.608536,37.691311 -35.280524,38.386265 -35.280524,38.386265 z"
       id="path3361"
       inkscape:connector-curvature="0" />
    <path
       style="fill:#040404;fill-opacity:1;stroke:#000000;stroke-width:0.57071579px;stroke-linecap:butt;stroke-linejoin:miter;stroke-opacity:1"
       d="M -41.50619,37.228003 -41.071844,33.608433 -41.042881,28.772689 -41.766791,28.106686 -45.386361,28.251471 -46.57359,29.409733 -46.515675,32.189565 -46.052366,32.39226 -46.052366,33.232 -47.152717,34.158608 -49.063856,36.706786 -46.718371,36.677828 -44.314972,33.724259 -43.156706,33.897997 -43.185669,37.199045 z"
       id="path3363"
       inkscape:connector-curvature="0" />
    <path
       style="fill:#495062;fill-opacity:1;stroke:#000000;stroke-width:0.57071579px;stroke-linecap:butt;stroke-linejoin:miter;stroke-opacity:1"
       d="M -42.664445,29.699297 -43.185669,31.581473 -44.488717,31.639389 -44.923063,30.886518 -44.633499,30.191557 -44.28602,29.901993 z"
       id="path3365"
       inkscape:connector-curvature="0" />
    <path
       style="fill:#040404;fill-opacity:1;stroke:#000000;stroke-width:0.57071579px;stroke-linecap:butt;stroke-linejoin:miter;stroke-opacity:1"
       d="M -48.976989,36.677828 -50.540638,36.562001 -50.56959,32.710782 -54.739335,32.10269 -54.710383,34.940437 -55.376378,35.577482 -56.853171,35.432697 -56.331947,26.427206 -55.260559,26.427206 -54.18917,27.093203 -54.623506,27.701296 -54.623506,30.539037 -50.511675,31.118171 -50.540638,28.425209 -49.9615,27.730248 -48.455765,27.614427 z"
       id="path3367"
       inkscape:connector-curvature="0" />
    <path
       style="fill:#040404;fill-opacity:1;stroke:#000000;stroke-width:0.57071579px;stroke-linecap:butt;stroke-linejoin:miter;stroke-opacity:1"
       d="M -58.098304,35.490607 -57.57708,26.514075 -63.194656,25.877031 -63.107788,27.469642 -59.690916,28.106686 -59.777783,29.873034 -63.049874,29.322864 C -63.049874,29.322864 -63.686916,30.857559 -63.107788,30.944428 -62.52865,31.031296 -59.633001,31.465645 -59.633001,31.465645 L -59.74882,33.260952 -63.339437,33.318869 -63.397352,34.940437 z"
       id="path3369"
       inkscape:connector-curvature="0" />
    <path
       style="fill:#000000;fill-opacity:1;stroke:#000000;stroke-width:0.57071579px;stroke-linecap:butt;stroke-linejoin:miter;stroke-opacity:1"
       d="M -63.773783,34.303394 -65.30848,34.390262 -66.032401,32.94243 -66.032401,32.160606 -67.248582,31.755216 -69.449273,31.639389 -70.752321,33.753218 -72.287018,33.840086 -72.258066,32.797651 C -72.258066,32.797651 -68.20414,25.384771 -68.088321,25.355813 -67.972491,25.326855 -66.698406,25.297897 -66.698406,25.297897 L -63.426315,33.029304 z"
       id="path3371"
       inkscape:connector-curvature="0" />
    <path
       style="fill:#495062;fill-opacity:1;stroke:#000000;stroke-width:0.57071579px;stroke-linecap:butt;stroke-linejoin:miter;stroke-opacity:1"
       d="M -66.930055,29.959909 -68.580571,29.699297 -68.20414,29.17808 -67.740832,28.193554 -66.930055,28.164597 z"
       id="path3373"
       inkscape:connector-curvature="0" />
    <path
       style="fill:#000000;fill-opacity:1;stroke:#000000;stroke-width:0.57071579px;stroke-linecap:butt;stroke-linejoin:miter;stroke-opacity:1"
       d="M -72.605534,33.116173 -72.171189,24.892506 -73.010939,24.28442 -78.541636,24.226504 -80.307982,26.137637 -80.684424,27.180078 -80.655472,29.873034 -80.250067,31.089213 -78.454769,32.623908 -76.65946,33.087215 z"
       id="path3375"
       inkscape:connector-curvature="0" />
    <path
       style="fill:#495062;fill-opacity:1;stroke:#000000;stroke-width:0.57071579px;stroke-linecap:butt;stroke-linejoin:miter;stroke-opacity:1"
       d="M -74.458758,31.639389 -76.225104,31.581473 -78.541636,30.481127 -79.091812,28.39625 -77.557115,25.905989 -73.995449,25.877031 z"
       id="path3377"
       inkscape:connector-curvature="0" />
    <path
       style="fill:#535b6d;fill-opacity:1;stroke:#000000;stroke-width:0.57071579px;stroke-linecap:butt;stroke-linejoin:miter;stroke-opacity:1"
       d="M 16.609642,50.374288 -21.960512,66.010828 -127.59406,48.926457 -127.36241,29.004343 z"
       id="path3461"
       inkscape:connector-curvature="0" />
    <path
       style="fill:#73615d;fill-opacity:1;stroke:#000000;stroke-width:0.57071579px;stroke-linecap:butt;stroke-linejoin:miter;stroke-opacity:1"
       d="M -127.07285,21.591457 -137.84469,21.533546 -137.84469,2.9434312 -127.01493,3.0592582 z"
       id="path3463"
       inkscape:connector-curvature="0" />
    <path
       style="fill:#372f36;fill-opacity:1;stroke:#000000;stroke-width:0.57071579px;stroke-linecap:butt;stroke-linejoin:miter;stroke-opacity:1"
       d="M -127.24658,3.1171682 -137.9026,2.9434312 -137.72886,-14.893816 -127.07285,-14.835901 z"
       id="path3465"
       inkscape:connector-curvature="0" />
    <path
       style="fill:#372f36;fill-opacity:1;stroke:#000000;stroke-width:0.57071579px;stroke-linecap:butt;stroke-linejoin:miter;stroke-opacity:1"
       d="M -137.84469,3.5804752 -160.14125,3.5804752 -160.14125,36.706786 -137.61304,36.590959 z"
       id="path3467"
       inkscape:connector-curvature="0" />
    <path
       style="fill:#4b424d;fill-opacity:1;stroke:#000000;stroke-width:0.57071579px;stroke-linecap:butt;stroke-linejoin:miter;stroke-opacity:1"
       d="M -139.06086,50.432199 -138.59756,55.238991 -137.4393,55.354817 -137.55512,36.764702 -139.17669,36.764702 z"
       id="path3469"
       inkscape:connector-curvature="0" />
    <path
       style="fill:#4a3f45;fill-opacity:1;stroke:#000000;stroke-width:0.57071579px;stroke-linecap:butt;stroke-linejoin:miter;stroke-opacity:1"
       d="M -138.53965,55.296902 C -138.53965,55.007337 -139.00296,50.432199 -139.00296,50.432199 L -160.02542,50.432199 -159.85168,55.470644 z"
       id="path3471"
       inkscape:connector-curvature="0" />
    <path
       style="fill:#73615d;fill-opacity:1;stroke:#000000;stroke-width:0.57071579px;stroke-linecap:butt;stroke-linejoin:miter;stroke-opacity:1"
       d="M -139.17669,50.548026 -139.35042,36.648876 -160.02542,36.590959 -159.96751,50.548026 z"
       id="path3473"
       inkscape:connector-curvature="0" />
    <path
       style="fill:#151515;fill-opacity:1;stroke:#000000;stroke-width:0.57071579px;stroke-linecap:butt;stroke-linejoin:miter;stroke-opacity:1"
       d="M -159.79377,60.509083 -160.08333,50.490109 -160.19916,29.17808 -191.93556,29.293907 -191.81973,60.393255 z"
       id="path3475"
       inkscape:connector-curvature="0" />
    <path
       style="fill:#0a0a0c;fill-opacity:1;stroke:#000000;stroke-width:0.57071579px;stroke-linecap:butt;stroke-linejoin:miter;stroke-opacity:1"
       d="M -160.08333,29.293907 -191.99346,29.23599 -191.99346,4.2175202 -160.14125,4.3333472 z"
       id="path3477"
       inkscape:connector-curvature="0" />
    <path
       style="fill:#151515;fill-opacity:1;stroke:#000000;stroke-width:0.57071579px;stroke-linecap:butt;stroke-linejoin:miter;stroke-opacity:1"
       d="M -160.14125,2.3642982 -160.08333,4.2754312 -191.93556,4.0437772 -191.87764,2.2484702 z"
       id="path3479"
       inkscape:connector-curvature="0" />
    <path
       style="fill:#0a0a0c;fill-opacity:1;stroke:#000000;stroke-width:0.57071579px;stroke-linecap:butt;stroke-linejoin:miter;stroke-opacity:1"
       d="M -160.25708,-1.0525778 -160.14125,2.3063872 -192.05138,2.1905602 -191.93556,-0.87883578 z"
       id="path3481"
       inkscape:connector-curvature="0" />
    <path
       style="fill:#151515;fill-opacity:1;stroke:#000000;stroke-width:0.57071579px;stroke-linecap:butt;stroke-linejoin:miter;stroke-opacity:1"
       d="M -160.25708,-28.445488 -191.93556,-28.561318 -191.81973,-0.82092478 -160.14125,-1.1104888 z"
       id="path3483"
       inkscape:connector-curvature="0" />
    <path
       style="fill:#0a0a0c;fill-opacity:1;stroke:#000000;stroke-width:0.57071579px;stroke-linecap:butt;stroke-linejoin:miter;stroke-opacity:1"
       d="M -160.31498,-28.445488 -191.93556,-28.677137 -191.93556,-53.869353 -159.96751,-53.695619 z"
       id="path3485"
       inkscape:connector-curvature="0" />
    <path
       style="fill:#73615d;fill-opacity:1;stroke:#000000;stroke-width:0.57071579px;stroke-linecap:butt;stroke-linejoin:miter;stroke-opacity:1"
       d="M -137.78677,3.6383862 -160.14125,3.4646492 -160.25708,-29.487924 -137.55512,-29.430009 z"
       id="path3487"
       inkscape:connector-curvature="0" />
    <path
       style="fill:#5a4f5b;fill-opacity:1;stroke:#000000;stroke-width:0.57071579px;stroke-linecap:butt;stroke-linejoin:miter;stroke-opacity:1"
       d="M -137.67095,-29.603754 -137.72886,-48.541342 -138.42382,-48.483437 -139.2346,-43.850384 -139.00296,-29.372095 z"
       id="path3489"
       inkscape:connector-curvature="0" />
    <path
       style="fill:#372f36;fill-opacity:1;stroke:#000000;stroke-width:0.57071579px;stroke-linecap:butt;stroke-linejoin:miter;stroke-opacity:1"
       d="M -139.06086,-29.430009 -139.35042,-43.734554 -160.08333,-43.792469 -160.31498,-29.603754 z"
       id="path3491"
       inkscape:connector-curvature="0" />
    <path
       style="fill:#8a7875;fill-opacity:1;stroke:#000000;stroke-width:0.57071579px;stroke-linecap:butt;stroke-linejoin:miter;stroke-opacity:1"
       d="M -139.40834,-43.734554 -138.3659,-48.657171 -160.19916,-48.715086 -160.14125,-43.734554 z"
       id="path3493"
       inkscape:connector-curvature="0" />
    <path
       style="fill:#2e3348;fill-opacity:1;stroke:#000000;stroke-width:0.57071579px;stroke-linecap:butt;stroke-linejoin:miter;stroke-opacity:1"
       d="M 20.779387,28.309382 20.837302,-8.3496344 176.56572,-4.3536233 176.5078,-25.955222 174.53875,-28.213839 156.41194,-39.854372 138.69053,-44.545341 6.185268,-63.540844 7.111885,-64.409546 20.258164,-66.378589 203.20576,-62.672152 203.26367,34.042782 z"
       id="path3495"
       inkscape:connector-curvature="0" />
    <path
       style="fill:#010101;fill-opacity:1;stroke:#000000;stroke-width:0.57071579px;stroke-linecap:butt;stroke-linejoin:miter;stroke-opacity:1"
       d="M 179.95363,24.168593 179.89572,8.7637002 170.86127,8.8795262 168.74745,9.8930042 167.47335,11.746227 167.4444,12.643877 168.37101,14.699795 170.10841,15.568493 170.13736,16.205538 168.08145,16.350322 166.45988,17.3638 165.85179,18.608931 165.82283,20.635891 166.60466,22.025806 169.18179,23.386763 172.91719,24.052767 z"
       id="path3497"
       inkscape:connector-curvature="0" />
    <path
       style="fill:#2e3348;fill-opacity:1;stroke:#000000;stroke-width:0.57071579px;stroke-linecap:butt;stroke-linejoin:miter;stroke-opacity:1"
       d="M 177.1159,21.909979 177.14485,17.276931 170.31111,17.334841 169.06596,17.885017 169.06596,20.751717 170.86127,21.852068 z"
       id="path3499"
       inkscape:connector-curvature="0" />
    <path
       style="fill:#2e3348;fill-opacity:1;stroke:#000000;stroke-width:0.57071579px;stroke-linecap:butt;stroke-linejoin:miter;stroke-opacity:1"
       d="M 177.08694,15.047275 171.96162,15.018318 170.89023,13.860056 170.7744,11.717268 172.54076,10.616917 177.1159,10.501096 z"
       id="path3501"
       inkscape:connector-curvature="0" />
    <path
       style="fill:#010101;fill-opacity:1;stroke:#000000;stroke-width:0.57071579px;stroke-linecap:butt;stroke-linejoin:miter;stroke-opacity:1"
       d="M 162.86926,23.560507 159.97361,23.531549 160.00256,16.176579 152.03951,16.176579 152.06846,14.497099 159.97361,14.468142 160.00256,10.559006 158.67056,9.8930042 152.01055,9.8640512 152.01055,8.2424832 162.78239,8.1845662 z"
       id="path3503"
       inkscape:connector-curvature="0" />
    <path
       style="fill:#010101;fill-opacity:1;stroke:#000000;stroke-width:0.57071579px;stroke-linecap:butt;stroke-linejoin:miter;stroke-opacity:1"
       d="M 149.72298,21.794153 149.63611,19.651366 148.76741,19.738241 147.8408,20.635891 146.16133,21.157108 142.7734,21.272934 141.58619,20.317368 140.68853,19.535545 141.15184,17.827106 147.08793,15.076234 149.49132,13.280922 149.52028,10.472138 148.4489,8.7926582 146.07446,7.7212652 140.60167,7.6633492 138.86426,8.2424832 138.86426,10.935439 142.25219,9.2559592 144.68454,9.4007452 146.82733,10.385269 146.88524,12.846573 141.70202,14.757711 138.22722,17.334841 138.34305,20.606932 140.1094,22.431197 141.49932,22.981373 147.92767,22.807636 z"
       id="path3505"
       inkscape:connector-curvature="0" />
    <path
       style="fill:#010101;fill-opacity:1;stroke:#000000;stroke-width:0.57071579px;stroke-linecap:butt;stroke-linejoin:miter;stroke-opacity:1"
       d="M 135.99756,19.072237 130.23522,18.985369 130.35104,18.435194 128.61364,18.406235 128.55573,16.726755 136.05548,16.755714 z"
       id="path3507"
       inkscape:connector-curvature="0" />
    <path
       style="fill:#010101;fill-opacity:1;stroke:#000000;stroke-width:0.57071579px;stroke-linecap:butt;stroke-linejoin:miter;stroke-opacity:1"
       d="M 121.20077,22.431197 118.36301,22.402244 118.30511,7.0842202 121.17181,7.0842202 z"
       id="path3509"
       inkscape:connector-curvature="0" />
    <path
       style="fill:#000000;fill-opacity:1;stroke:#000000;stroke-width:0.57071579px;stroke-linecap:butt;stroke-linejoin:miter;stroke-opacity:1"
       d="M 110.34205,19.014321 110.25518,21.272934 109.67604,21.7652 102.92917,21.7652 99.541248,18.869543 99.570208,15.539535 101.33655,13.946924 102.32108,13.860056 102.32108,13.367796 101.33655,13.309879 100.12038,11.948923 100.06247,8.1556142 101.85778,7.1710892 102.92917,6.5630032 108.69152,6.5919552 109.67604,7.1710892 109.73396,9.1980492 109.12587,9.1401332 109.06796,8.7057842 104.05848,8.6189152 102.92917,9.2849182 102.92917,12.12266 104.14535,12.614925 106.89621,12.759704 106.86726,14.931448 103.94265,15.192055 102.90021,15.655361 102.379,16.900492 102.29212,18.464151 103.68204,19.535545 104.66656,20.056762 107.41744,20.230499 107.59118,19.622413 109.82084,19.332844 z"
       id="path3511"
       inkscape:connector-curvature="0" />
    <path
       style="fill:#515b82;fill-opacity:1;stroke:#000000;stroke-width:0.57071579px;stroke-linecap:butt;stroke-linejoin:miter;stroke-opacity:1"
       d="M 203.23472,-62.585285 203.20576,-65.828413 176.9132,-65.654679 177.05797,-64.901807 25.52826,-66.552333 z"
       id="path3513"
       inkscape:connector-curvature="0" />
    <path
       style="fill:#372f36;fill-opacity:1;stroke:#000000;stroke-width:0.57071579px;stroke-linecap:butt;stroke-linejoin:miter;stroke-opacity:1"
       d="M 177.20277,-64.757025 176.10241,-67.073546 156.35404,-79.235303 135.44739,-83.810442 -92.614532,-110.45049 16.310912,-65.913561 20.40598,-66.568777 z"
       id="path3515"
       inkscape:connector-curvature="0" />
    <path
       style="fill:#554845;fill-opacity:1;stroke:#000000;stroke-width:0.57071579px;stroke-linecap:butt;stroke-linejoin:miter;stroke-opacity:1"
       d="M 16.147097,-65.872621 7.09699,-64.480287 6.196068,-63.497463 -55.189139,-72.547591 -92.618139,-87.535572 -92.536237,-110.3861 z"
       id="path3517"
       inkscape:connector-curvature="0" />
    <path
       style="fill:#50444d;fill-opacity:1;stroke:#000000;stroke-width:0.57071579px;stroke-linecap:butt;stroke-linejoin:miter;stroke-opacity:1"
       d="M 139.04036,-44.619159 134.69959,-23.816169 151.98081,-19.925845 156.44444,-39.827924 z"
       id="path3519"
       inkscape:connector-curvature="0" />
    <path
       style="fill:#584a52;fill-opacity:1;stroke:#000000;stroke-width:0.57071579px;stroke-linecap:butt;stroke-linejoin:miter;stroke-opacity:1"
       d="M 174.74944,-6.1663946 174.74944,-27.911258 176.51032,-26.027512 176.59222,-4.2417083 z"
       id="path3521"
       inkscape:connector-curvature="0" />
    <path
       style="fill:#5a4c54;fill-opacity:1;stroke:#000000;stroke-width:0.57071579px;stroke-linecap:butt;stroke-linejoin:miter;stroke-opacity:1"
       d="M 174.70849,-6.0435416 151.93985,-20.007747 156.52634,-39.950777 174.79039,-27.993149 z"
       id="path3523"
       inkscape:connector-curvature="0" />
    <path
       style="fill:#443a42;fill-opacity:1;stroke:#000000;stroke-width:0.57071579px;stroke-linecap:butt;stroke-linejoin:miter;stroke-opacity:1"
       d="M -90.857256,-77.666434 -90.939158,-55.389219 134.74054,-23.898081 139.08131,-44.619159 -55.516747,-72.629493 z"
       id="path3525"
       inkscape:connector-curvature="0" />
    <path
       style="fill:#73615d;fill-opacity:1;stroke:#000000;stroke-width:0.57071579px;stroke-linecap:butt;stroke-linejoin:miter;stroke-opacity:1"
       d="M -91.02106,-55.43017 134.90434,-23.898081 152.02176,-19.966806 174.70849,-6.2073456 176.51032,-4.4874036 15.328088,-8.5824929 z"
       id="path3527"
       inkscape:connector-curvature="0" />
    <path
       style="fill:#2d3248;fill-opacity:1;stroke:#000000;stroke-width:0.57071579px;stroke-linecap:butt;stroke-linejoin:miter;stroke-opacity:1"
       d="M -79.513894,-50.352278 -127.59009,-42.735434 -127.5082,-14.970806 -127.01679,-14.888904 -127.01679,13.69473 20.733588,28.355107 20.897392,-8.3367869 15.164284,-8.5824929 z"
       id="path3529"
       inkscape:connector-curvature="0" />
  </g>
</svg>
