<?xml version="1.0" encoding="UTF-8" standalone="no"?>
<!-- Created with Inkscape (http://www.inkscape.org/) -->

<svg
   xmlns:dc="http://purl.org/dc/elements/1.1/"
   xmlns:cc="http://creativecommons.org/ns#"
   xmlns:rdf="http://www.w3.org/1999/02/22-rdf-syntax-ns#"
   xmlns:svg="http://www.w3.org/2000/svg"
   xmlns="http://www.w3.org/2000/svg"
   xmlns:sodipodi="http://sodipodi.sourceforge.net/DTD/sodipodi-0.dtd"
   xmlns:inkscape="http://www.inkscape.org/namespaces/inkscape"
   width="744.09448819"
   height="1052.3622047"
   id="svg2"
   version="1.1"
   inkscape:version="0.48.3.1 r9886"
   sodipodi:docname="player-OtherSide.svg">
  <defs
     id="defs4" />
  <sodipodi:namedview
     id="base"
     pagecolor="#ffffff"
     bordercolor="#666666"
     borderopacity="1.0"
     inkscape:pageopacity="0.0"
     inkscape:pageshadow="2"
     inkscape:zoom="0.7938744"
     inkscape:cx="92.344904"
     inkscape:cy="901.99728"
     inkscape:document-units="px"
     inkscape:current-layer="layer1"
     showgrid="false"
     inkscape:window-width="1917"
     inkscape:window-height="1058"
     inkscape:window-x="0"
     inkscape:window-y="19"
     inkscape:window-maximized="0" />
  <metadata
     id="metadata7">
    <rdf:RDF>
      <cc:Work
         rdf:about="">
        <dc:format>image/svg+xml</dc:format>
        <dc:type
           rdf:resource="http://purl.org/dc/dcmitype/StillImage" />
        <dc:title />
      </cc:Work>
    </rdf:RDF>
  </metadata>
  <g
     inkscape:label="Layer 1"
     inkscape:groupmode="layer"
     id="layer1">
    <path
       style="fill:#73615e;fill-opacity:1;stroke:#000000;stroke-width:0.5479995px;stroke-linecap:butt;stroke-linejoin:miter;stroke-opacity:1"
       d="M 258.52902,81.741821 225.6371,78.955298 225.69174,114.90692 258.52902,130.31477 287.81484,121.68201 287.86948,-70.588209 258.58365,-62.228637 z"
       id="path3190"
       inkscape:connector-curvature="0" />
    <path
       style="fill:#776561;fill-opacity:1;stroke:#000000;stroke-width:0.5479995px;stroke-linecap:butt;stroke-linejoin:miter;stroke-opacity:1"
       d="M 258.63829,-62.11936 225.6371,-46.60224 225.6371,-1.6900159 258.63829,-15.404091 z"
       id="path3192"
       inkscape:connector-curvature="0" />
    <path
       style="fill:#766460;fill-opacity:1;stroke:#000000;stroke-width:0.5479995px;stroke-linecap:butt;stroke-linejoin:miter;stroke-opacity:1"
       d="M 258.58365,-15.294815 225.58246,-1.7992921 225.69174,79.009927 258.47438,81.68718 z"
       id="path3194"
       inkscape:connector-curvature="0" />
    <path
       style="fill:#6f5d5a;fill-opacity:1;stroke:#000000;stroke-width:0.5479995px;stroke-linecap:butt;stroke-linejoin:miter;stroke-opacity:1"
       d="M 225.69174,78.900658 214.54563,76.168764 214.81883,109.38852 225.69174,114.68837 z"
       id="path3196"
       inkscape:connector-curvature="0" />
    <path
       style="fill:#695855;fill-opacity:1;stroke:#000000;stroke-width:0.5479995px;stroke-linecap:butt;stroke-linejoin:miter;stroke-opacity:1"
       d="M 214.87345,109.44315 197.28011,100.75575 197.66257,67.208187 214.6549,76.114135 z"
       id="path3198"
       inkscape:connector-curvature="0" />
    <path
       style="fill:#73615d;fill-opacity:1;stroke:#000000;stroke-width:0.5479995px;stroke-linecap:butt;stroke-linejoin:miter;stroke-opacity:1"
       d="M 225.69174,-1.8539279 214.6549,1.205784 214.76418,76.278045 225.6371,78.900658 z"
       id="path3200"
       inkscape:connector-curvature="0" />
    <path
       style="fill:#74635f;fill-opacity:1;stroke:#000000;stroke-width:0.5479995px;stroke-linecap:butt;stroke-linejoin:miter;stroke-opacity:1"
       d="M 225.74638,-1.7446505 214.54563,1.1511482 214.70954,-41.357019 225.80101,-46.60224 z"
       id="path3202"
       inkscape:connector-curvature="0" />
    <path
       style="fill:#695855;fill-opacity:1;stroke:#000000;stroke-width:0.5479995px;stroke-linecap:butt;stroke-linejoin:miter;stroke-opacity:1"
       d="M 214.49099,0.71404682 197.66257,0.5501302 197.60793,-33.270629 214.70954,-41.411655 z"
       id="path3204"
       inkscape:connector-curvature="0" />
    <path
       style="fill:#61514e;fill-opacity:1;stroke:#000000;stroke-width:0.5479995px;stroke-linecap:butt;stroke-linejoin:miter;stroke-opacity:1"
       d="M 214.60027,0.71404682 214.76418,76.223404 197.77185,67.262816 197.66257,0.49549441 z"
       id="path3206"
       inkscape:connector-curvature="0" />
    <path
       style="fill:#2c3146;fill-opacity:1;stroke:#000000;stroke-width:0.5479995px;stroke-linecap:butt;stroke-linejoin:miter;stroke-opacity:1"
       d="M 197.44402,-49.443403 197.60793,-32.287152 170.23443,-31.686138 170.28906,-49.279491 z"
       id="path3208"
       inkscape:connector-curvature="0" />
    <path
       style="fill:#4b4049;fill-opacity:1;stroke:#000000;stroke-width:0.5479995px;stroke-linecap:butt;stroke-linejoin:miter;stroke-opacity:1"
       d="M 197.5533,-33.215994 197.33475,-67.364581 258.41974,-96.158665 258.52902,-62.11936 z"
       id="path3210"
       inkscape:connector-curvature="0" />
    <path
       style="fill:#372f36;fill-opacity:1;stroke:#000000;stroke-width:0.5479995px;stroke-linecap:butt;stroke-linejoin:miter;stroke-opacity:1"
       d="M 287.97876,-70.588209 287.81484,-87.689815 258.31046,-96.158665 258.52902,-62.228637 z"
       id="path3212"
       inkscape:connector-curvature="0" />
    <path
       style="fill:#554851;fill-opacity:1;stroke:#000000;stroke-width:0.5479995px;stroke-linecap:butt;stroke-linejoin:miter;stroke-opacity:1"
       d="M 172.36529,-27.916132 161.49239,-35.674692 151.82151,-41.575567 135.26627,-44.908473 130.84061,-67.528499 147.23194,-64.195593 169.63341,-51.738189 171.98283,-49.55268 170.28906,-49.388768 170.12515,-31.795415 z"
       id="path3214"
       inkscape:connector-curvature="0" />
    <path
       style="fill:#463b43;fill-opacity:1;stroke:#000000;stroke-width:0.5479995px;stroke-linecap:butt;stroke-linejoin:miter;stroke-opacity:1"
       d="M 135.36432,-44.888009 130.84405,-67.489322 -87.171653,-92.099627 -87.017121,-70.696001 z"
       id="path3216"
       inkscape:connector-curvature="0" />
    <path
       style="fill:#73615d;fill-opacity:1;stroke:#000000;stroke-width:0.5479995px;stroke-linecap:butt;stroke-linejoin:miter;stroke-opacity:1"
       d="M 172.31842,-27.966005 C 172.22184,-28.043273 161.32847,-35.838604 161.32847,-35.838604 L 151.82151,-41.630208 135.26627,-44.963107 -86.890782,-70.752122 17.631212,-28.571786 z"
       id="path3220"
       inkscape:connector-curvature="0" />
    <path
       style="fill:#444b59;fill-opacity:1;stroke:#000000;stroke-width:0.5479995px;stroke-linecap:butt;stroke-linejoin:miter;stroke-opacity:1"
       d="M 197.4167,83.162402 C 197.4167,82.916538 197.47133,80.075363 197.47133,80.075363 L 28.504123,83.271671 28.394842,83.818052 171.54573,82.943852 171.54573,83.818052 z"
       id="path3222"
       inkscape:connector-curvature="0" />
    <path
       style="fill:#73615d;fill-opacity:1;stroke:#000000;stroke-width:0.5479995px;stroke-linecap:butt;stroke-linejoin:miter;stroke-opacity:1"
       d="M 171.57305,83.872693 171.51841,82.889212 28.114341,83.920138 20.69648,83.842872 17.837508,83.301989 -87.017121,125.87745 135.44158,100.37853 152.44086,96.437793 167.74021,86.933653 z"
       id="path3224"
       inkscape:connector-curvature="0" />
    <path
       style="fill:#6b5a5b;fill-opacity:1;stroke:#000000;stroke-width:0.5479995px;stroke-linecap:butt;stroke-linejoin:miter;stroke-opacity:1"
       d="M 171.29461,45.4786 169.71058,46.908085 169.67195,26.045333 170.83099,24.306766 171.37188,24.306766 z"
       id="path3226"
       inkscape:connector-curvature="0" />
    <path
       style="fill:#383037;fill-opacity:1;stroke:#000000;stroke-width:0.5479995px;stroke-linecap:butt;stroke-linejoin:miter;stroke-opacity:1"
       d="M 170.67645,24.422674 161.71319,31.299656 152.09316,37.635752 147.45699,24.770385 z"
       id="path3228"
       inkscape:connector-curvature="0" />
    <path
       style="fill:#3a3138;fill-opacity:1;stroke:#000000;stroke-width:0.5479995px;stroke-linecap:butt;stroke-linejoin:miter;stroke-opacity:1"
       d="M 152.20905,37.635752 136.13701,41.30605 145.52525,24.809019 147.57289,24.809019 z"
       id="path3230"
       inkscape:connector-curvature="0" />
    <path
       style="fill:#715f5e;fill-opacity:1;stroke:#000000;stroke-width:0.5479995px;stroke-linecap:butt;stroke-linejoin:miter;stroke-opacity:1"
       d="M 152.3636,37.51985 148.22968,59.773441 169.78785,46.676275 169.59468,25.15673 z"
       id="path3232"
       inkscape:connector-curvature="0" />
    <path
       style="fill:#75625f;fill-opacity:1;stroke:#000000;stroke-width:0.5479995px;stroke-linecap:butt;stroke-linejoin:miter;stroke-opacity:1"
       d="M 136.13701,41.267417 152.28632,37.635752 148.22968,59.927984 131.57811,64.023266 z"
       id="path3234"
       inkscape:connector-curvature="0" />
    <path
       style="fill:#372f36;fill-opacity:1;stroke:#000000;stroke-width:0.5479995px;stroke-linecap:butt;stroke-linejoin:miter;stroke-opacity:1"
       d="M 136.13701,41.383318 145.60252,24.693117 17.084843,28.032922 -73.88701,68.355566 -84.923831,72.835861 z"
       id="path3236"
       inkscape:connector-curvature="0" />
    <path
       style="fill:#776461;fill-opacity:1;stroke:#000000;stroke-width:0.5479995px;stroke-linecap:butt;stroke-linejoin:miter;stroke-opacity:1"
       d="M 136.14047,41.364527 131.49626,64.121148 -84.86919,94.581683 -84.81455,72.726591 z"
       id="path3238"
       inkscape:connector-curvature="0" />
    <path
       style="fill:#58638e;fill-opacity:1;stroke:#000000;stroke-width:0.5479995px;stroke-linecap:butt;stroke-linejoin:miter;stroke-opacity:1"
       d="M -17.992593,-42.886874 -20.068825,-43.597164 -120.05589,-27.260478 -119.94662,-24.911056 z"
       id="path3240"
       inkscape:connector-curvature="0" />
    <path
       style="fill:#333952;fill-opacity:1;stroke:#000000;stroke-width:0.5479995px;stroke-linecap:butt;stroke-linejoin:miter;stroke-opacity:1"
       d="M -18.211143,-42.996152 17.658538,-28.544468 19.598175,-28.51715 19.543534,-27.806856 -119.9193,-8.137267 -119.89198,-24.938374 z"
       id="path3242"
       inkscape:connector-curvature="0" />
    <path
       style="fill:#474e60;fill-opacity:1;stroke:#000000;stroke-width:0.5479995px;stroke-linecap:butt;stroke-linejoin:miter;stroke-opacity:1"
       d="M 19.570849,-27.75222 19.570849,-28.571786 22.248102,-28.544468 22.302742,-7.0171951 -119.66345,6.9597833 C -119.66345,6.9597833 -119.62481,-8.0304901 -119.47028,-8.1463911 -119.31573,-8.262299 19.570849,-27.75222 19.570849,-27.75222 z"
       id="path3244"
       inkscape:connector-curvature="0" />
    <path
       style="fill:#5a6278;fill-opacity:1;stroke:#000000;stroke-width:0.5479995px;stroke-linecap:butt;stroke-linejoin:miter;stroke-opacity:1"
       d="M 197.60484,-12.512117 197.56621,-32.293092 170.25147,-31.713572 172.2991,-27.850098 22.248102,-28.489828 22.275428,-6.9625594 z"
       id="path3341"
       inkscape:connector-curvature="0" />
    <path
       style="fill:#5c6579;fill-opacity:1;stroke:#000000;stroke-width:0.5479995px;stroke-linecap:butt;stroke-linejoin:miter;stroke-opacity:1"
       d="M 197.49866,-12.453651 197.71721,67.426725 197.44402,80.048049 28.449483,83.244345 28.230933,83.981962 22.220776,83.736098 22.330057,79.474353 131.57811,64.023266 148.38421,59.773441 169.69126,46.695592 171.27529,45.382015 171.37188,24.268132 145.33208,24.577209 22.275428,27.814364 22.493966,-6.9625594 z"
       id="path3343"
       inkscape:connector-curvature="0" />
    <path
       style="fill:#000000;fill-opacity:1;stroke:#000000;stroke-width:0.5479995px;stroke-linecap:butt;stroke-linejoin:miter;stroke-opacity:1"
       d="M 174.69447,73.025156 174.7331,59.812085 167.08342,59.927984 163.33586,62.014264 163.33586,64.795959 164.34036,65.80046 165.84711,65.839104 165.80848,66.457254 164.22445,66.573152 161.5973,68.775331 161.71319,71.325228 163.91537,72.870613 z"
       id="path3345"
       inkscape:connector-curvature="0" />
    <path
       style="fill:#5c6579;fill-opacity:1;stroke:#000000;stroke-width:0.5479995px;stroke-linecap:butt;stroke-linejoin:miter;stroke-opacity:1"
       d="M 171.95139,71.402494 171.95139,67.577665 166.04029,67.500388 164.22445,68.582155 164.37899,70.320715 165.53803,71.441127 z"
       id="path3347"
       inkscape:connector-curvature="0" />
    <path
       style="fill:#5c6579;fill-opacity:1;stroke:#000000;stroke-width:0.5479995px;stroke-linecap:butt;stroke-linejoin:miter;stroke-opacity:1"
       d="M 171.95139,65.259576 169.67195,65.839104 167.08342,65.220943 165.96302,64.061899 165.88574,63.250574 166.5039,62.130162 168.16519,61.589279 171.87413,61.512002 z"
       id="path3349"
       inkscape:connector-curvature="0" />
    <path
       style="fill:#000000;fill-opacity:1;stroke:#000000;stroke-width:0.5479995px;stroke-linecap:butt;stroke-linejoin:miter;stroke-opacity:1"
       d="M 158.15881,73.411508 158.73832,60.507512 147.9206,60.391602 147.84333,61.936986 155.493,62.014264 155.493,65.955003 147.9206,65.91637 147.84333,67.500388 155.493,67.539021 155.53164,73.527407 z"
       id="path3351"
       inkscape:connector-curvature="0" />
    <path
       style="fill:#000000;fill-opacity:1;stroke:#000000;stroke-width:0.5479995px;stroke-linecap:butt;stroke-linejoin:miter;stroke-opacity:1"
       d="M 145.64115,70.822977 145.60252,73.083099 143.3617,73.971702 137.46991,74.029657 134.72684,71.808157 134.68821,69.663933 135.51885,68.504889 143.3617,64.313019 143.34238,63.211929 142.82082,62.574458 141.0243,61.994942 143.03331,61.492691 145.08095,61.492691 146.10477,63.192619 146.18203,64.255075 145.4673,65.356164 142.70491,67.461755 138.60963,69.277581 137.46991,70.282082 137.45059,71.904744 138.74485,72.387684 142.93672,72.522905 144.09577,71.576348 z"
       id="path3353"
       inkscape:connector-curvature="0" />
    <path
       style="fill:#000000;fill-opacity:1;stroke:#000000;stroke-width:0.5479995px;stroke-linecap:butt;stroke-linejoin:miter;stroke-opacity:1"
       d="M 132.49569,70.832633 132.47637,69.180993 125.37725,69.19066 125.3869,70.813322 z"
       id="path3355"
       inkscape:connector-curvature="0" />
    <path
       style="fill:#000000;fill-opacity:1;stroke:#000000;stroke-width:0.5479995px;stroke-linecap:butt;stroke-linejoin:miter;stroke-opacity:1"
       d="M 118.78037,74.638151 118.78037,66.080568 115.48675,66.592474 115.51573,74.628496 z"
       id="path3357"
       inkscape:connector-curvature="0" />
    <path
       style="fill:#000000;fill-opacity:1;stroke:#000000;stroke-width:0.5479995px;stroke-linecap:butt;stroke-linejoin:miter;stroke-opacity:1"
       d="M 107.79844,74.647806 107.77913,72.46495 104.76562,73.527407 102.33164,73.566039 100.76692,72.406995 100.74761,70.166184 101.98392,69.180993 104.61108,69.12305 104.57245,68.002638 98.622696,69.045772 97.560239,70.842288 97.560239,72.001332 99.685152,74.705762 101.53962,75.188701 z"
       id="path3359"
       inkscape:connector-curvature="0" />
    <path
       style="fill:#5a6276;fill-opacity:1;stroke:#000000;stroke-width:0.5479995px;stroke-linecap:butt;stroke-linejoin:miter;stroke-opacity:1"
       d="M 22.512307,-6.9487173 22.319131,27.938431 16.98755,28.054344 -74.615376,68.504889 -119.97253,61.087017 -119.58618,6.9984173 z"
       id="path3361"
       inkscape:connector-curvature="0" />
    <path
       style="fill:#372f36;fill-opacity:1;stroke:#000000;stroke-width:0.5479995px;stroke-linecap:butt;stroke-linejoin:miter;stroke-opacity:1"
       d="M -119.50891,17.622965 -130.59708,17.661599 -130.48117,-0.72852823 -119.62481,-0.68989419 z"
       id="path3363"
       inkscape:connector-curvature="0" />
    <path
       style="fill:#73615d;fill-opacity:1;stroke:#000000;stroke-width:0.5479995px;stroke-linecap:butt;stroke-linejoin:miter;stroke-opacity:1"
       d="M -119.58618,17.545691 -119.81798,34.390434 -130.44254,34.390434 -130.48117,17.700233 z"
       id="path3365"
       inkscape:connector-curvature="0" />
    <path
       style="fill:#73615d;fill-opacity:1;stroke:#000000;stroke-width:0.5479995px;stroke-linecap:butt;stroke-linejoin:miter;stroke-opacity:1"
       d="M -130.5198,17.004806 -151.38255,17.082078 -151.41795,-14.803073 -130.27315,-14.584525 z"
       id="path3367"
       inkscape:connector-curvature="0" />
    <path
       style="fill:#5a4f5b;fill-opacity:1;stroke:#000000;stroke-width:0.5479995px;stroke-linecap:butt;stroke-linejoin:miter;stroke-opacity:1"
       d="M -130.51902,-14.639161 -130.46439,-31.904686 -131.74837,-27.916132 -131.66642,-14.529884 z"
       id="path3369"
       inkscape:connector-curvature="0" />
    <path
       style="fill:#372f36;fill-opacity:1;stroke:#000000;stroke-width:0.5479995px;stroke-linecap:butt;stroke-linejoin:miter;stroke-opacity:1"
       d="M -131.77543,-27.811464 -131.69816,-14.598389 -151.42119,-14.830199 -151.36323,-27.888738 z"
       id="path3371"
       inkscape:connector-curvature="0" />
    <path
       style="fill:#8a7875;fill-opacity:1;stroke:#000000;stroke-width:0.5479995px;stroke-linecap:butt;stroke-linejoin:miter;stroke-opacity:1"
       d="M -131.71748,-27.77283 -130.46185,-31.674938 -130.46185,-33.007837 -151.13142,-33.027153 -151.28597,-27.830781 z"
       id="path3373"
       inkscape:connector-curvature="0" />
    <path
       style="fill:#0a0a0c;fill-opacity:1;stroke:#000000;stroke-width:0.5479995px;stroke-linecap:butt;stroke-linejoin:miter;stroke-opacity:1"
       d="M -151.30528,-7.5668712 -151.42119,-27.77283 -151.07348,-33.027153 -151.15074,-37.856492 -181.82672,-38.011034 -181.71081,-7.5668712 z"
       id="path3375"
       inkscape:connector-curvature="0" />
    <path
       style="fill:#151515;fill-opacity:1;stroke:#000000;stroke-width:0.5479995px;stroke-linecap:butt;stroke-linejoin:miter;stroke-opacity:1"
       d="M -151.45982,16.502558 -151.45982,-7.5282372 -181.74944,-7.5282372 -181.74944,16.657095 z"
       id="path3377"
       inkscape:connector-curvature="0" />
    <path
       style="fill:#0a0a0c;fill-opacity:1;stroke:#000000;stroke-width:0.5479995px;stroke-linecap:butt;stroke-linejoin:miter;stroke-opacity:1"
       d="M -151.38255,18.202485 -151.38255,16.541193 -181.94262,16.618461 -181.78809,18.241119 z"
       id="path3379"
       inkscape:connector-curvature="0" />
    <path
       style="fill:#151515;fill-opacity:1;stroke:#000000;stroke-width:0.5479995px;stroke-linecap:butt;stroke-linejoin:miter;stroke-opacity:1"
       d="M -151.34392,21.525072 -151.42119,18.241119 -181.78809,18.318387 -181.74944,21.525072 z"
       id="path3381"
       inkscape:connector-curvature="0" />
    <path
       style="fill:#0a0a0c;fill-opacity:1;stroke:#000000;stroke-width:0.5479995px;stroke-linecap:butt;stroke-linejoin:miter;stroke-opacity:1"
       d="M -151.42119,21.525072 -151.42119,47.217156 -181.86536,47.255796 -181.78809,21.486433 z"
       id="path3383"
       inkscape:connector-curvature="0" />
    <path
       style="fill:#151515;fill-opacity:1;stroke:#000000;stroke-width:0.5479995px;stroke-linecap:butt;stroke-linejoin:miter;stroke-opacity:1"
       d="M -151.18938,71.711569 -151.38255,47.139894 -181.78809,47.29443 -181.71081,71.672936 z"
       id="path3385"
       inkscape:connector-curvature="0" />
    <path
       style="fill:#4b424d;fill-opacity:1;stroke:#000000;stroke-width:0.5479995px;stroke-linecap:butt;stroke-linejoin:miter;stroke-opacity:1"
       d="M -130.23004,65.452752 -131.77543,62.014264 -131.69816,48.839826 -130.23004,48.955725 z"
       id="path3387"
       inkscape:connector-curvature="0" />
    <path
       style="fill:#4a3f45;fill-opacity:1;stroke:#000000;stroke-width:0.5479995px;stroke-linecap:butt;stroke-linejoin:miter;stroke-opacity:1"
       d="M -130.4039,65.085723 -130.4039,66.78565 -151.3246,66.727695 -151.34392,61.936986 -131.77543,62.052885 z"
       id="path3389"
       inkscape:connector-curvature="0" />
    <path
       style="fill:#73615d;fill-opacity:1;stroke:#000000;stroke-width:0.5479995px;stroke-linecap:butt;stroke-linejoin:miter;stroke-opacity:1"
       d="M -131.75611,62.072207 -131.65952,48.878459 -151.44051,48.859137 -151.3246,61.917676 z"
       id="path3391"
       inkscape:connector-curvature="0" />
    <path
       style="fill:#372f36;fill-opacity:1;stroke:#000000;stroke-width:0.5479995px;stroke-linecap:butt;stroke-linejoin:miter;stroke-opacity:1"
       d="M -130.21073,48.936402 -151.42119,48.762549 -151.34392,17.082078 -130.59708,17.004806 z"
       id="path3393"
       inkscape:connector-curvature="0" />
    <path
       style="fill:#493e48;fill-opacity:1;stroke:#000000;stroke-width:0.5479995px;stroke-linecap:butt;stroke-linejoin:miter;stroke-opacity:1"
       d="M 17.914774,83.224711 7.9470165,81.486151 -50.829876,89.718928 -87.094387,104.70562 -87.094387,125.87745 z"
       id="path3395"
       inkscape:connector-curvature="0" />
    <path
       style="fill:#000000;fill-opacity:1;stroke:#000000;stroke-width:0.5479995px;stroke-linecap:butt;stroke-linejoin:miter;stroke-opacity:1"
       d="M 4.0449103,82.220222 4.1994533,83.958782 3.8131129,83.842872 2.7313344,83.224711 2.6540571,82.297476 z"
       id="path3397"
       inkscape:connector-curvature="0" />
  </g>
</svg>
