<?xml version="1.0" encoding="UTF-8" standalone="no"?>
<!-- Created with Inkscape (http://www.inkscape.org/) -->

<svg
   xmlns:dc="http://purl.org/dc/elements/1.1/"
   xmlns:cc="http://creativecommons.org/ns#"
   xmlns:rdf="http://www.w3.org/1999/02/22-rdf-syntax-ns#"
   xmlns:svg="http://www.w3.org/2000/svg"
   xmlns="http://www.w3.org/2000/svg"
   xmlns:sodipodi="http://sodipodi.sourceforge.net/DTD/sodipodi-0.dtd"
   xmlns:inkscape="http://www.inkscape.org/namespaces/inkscape"
   width="744.09448819"
   height="1052.3622047"
   id="svg3065"
   version="1.1"
   inkscape:version="0.48.3.1 r9886"
   sodipodi:docname="player-Top.svg">
  <defs
     id="defs3067" />
  <sodipodi:namedview
     id="base"
     pagecolor="#ffffff"
     bordercolor="#666666"
     borderopacity="1.0"
     inkscape:pageopacity="0.0"
     inkscape:pageshadow="2"
     inkscape:zoom="0.50605941"
     inkscape:cx="777.33806"
     inkscape:cy="422.51378"
     inkscape:document-units="px"
     inkscape:current-layer="layer1"
     showgrid="false"
     inkscape:window-width="1917"
     inkscape:window-height="1058"
     inkscape:window-x="0"
     inkscape:window-y="20"
     inkscape:window-maximized="0" />
  <metadata
     id="metadata3070">
    <rdf:RDF>
      <cc:Work
         rdf:about="">
        <dc:format>image/svg+xml</dc:format>
        <dc:type
           rdf:resource="http://purl.org/dc/dcmitype/StillImage" />
      </cc:Work>
    </rdf:RDF>
  </metadata>
  <g
     inkscape:label="Layer 1"
     inkscape:groupmode="layer"
     id="layer1">
    <rect
       style="fill:#ff0000;fill-opacity:1;stroke:#000000;stroke-width:0;stroke-linecap:butt;stroke-linejoin:bevel;stroke-miterlimit:4;stroke-opacity:1;stroke-dasharray:none"
       id="BBox"
       width="461.59882"
       height="273.36243"
       x="-259.02875"
       y="-133.79861"
       ry="0"
       inkscape:label="#rect3066"
       transform="scale(1,-1)" />
    <path
       style="fill:#7b686a;fill-opacity:1;stroke:#000000;stroke-width:0.53869134px;stroke-linecap:butt;stroke-linejoin:miter;stroke-opacity:1"
       d="M 235.8224,130.61452 C 235.8224,130.61452 263.70078,131.27047 263.70078,130.61452 263.70078,129.95856 263.70078,-136.36185 263.70078,-136.36185 L 235.3851,-136.58049 z"
       id="path3192"
       inkscape:connector-curvature="0" />
    <path
       style="fill:#736262;fill-opacity:1;stroke:#000000;stroke-width:0.53869134px;stroke-linecap:butt;stroke-linejoin:miter;stroke-opacity:1"
       d="M 235.8224,130.61452 203.3523,108.85847 203.3523,53.101722 235.8224,64.362408 z"
       id="path3194"
       inkscape:connector-curvature="0" />
    <path
       style="fill:#756365;fill-opacity:1;stroke:#000000;stroke-width:0.53869134px;stroke-linecap:butt;stroke-linejoin:miter;stroke-opacity:1"
       d="M 235.8224,64.362408 203.24298,52.992399 203.46164,-59.067695 235.49443,-69.891065 z"
       id="path3196"
       inkscape:connector-curvature="0" />
    <path
       style="fill:#6c5b5c;fill-opacity:1;stroke:#000000;stroke-width:0.53869134px;stroke-linecap:butt;stroke-linejoin:miter;stroke-opacity:1"
       d="M 235.49443,-69.672407 203.46164,-59.067695 203.46164,-115.15242 235.3851,-136.58049 z"
       id="path3198"
       inkscape:connector-curvature="0" />
    <path
       style="fill:#605052;fill-opacity:1;stroke:#000000;stroke-width:0.53869134px;stroke-linecap:butt;stroke-linejoin:miter;stroke-opacity:1"
       d="M 203.68029,-59.17703 192.52895,-55.022606 192.52895,-107.93684 203.3523,-114.93376 z"
       id="path3200"
       inkscape:connector-curvature="0" />
    <path
       style="fill:#544747;fill-opacity:1;stroke:#000000;stroke-width:0.53869134px;stroke-linecap:butt;stroke-linejoin:miter;stroke-opacity:1"
       d="M 192.52895,-55.131928 175.25529,-49.337601 175.14595,-96.457502 192.41961,-107.60886 z"
       id="path3202"
       inkscape:connector-curvature="0" />
    <path
       style="fill:#695959;fill-opacity:1;stroke:#000000;stroke-width:0.53869134px;stroke-linecap:butt;stroke-linejoin:miter;stroke-opacity:1"
       d="M 203.3523,53.156396 192.47428,49.384614 192.63827,-55.077267 203.51631,-59.17703 z"
       id="path3204"
       inkscape:connector-curvature="0" />
    <path
       style="fill:#6c5c5b;fill-opacity:1;stroke:#000000;stroke-width:0.53869134px;stroke-linecap:butt;stroke-linejoin:miter;stroke-opacity:1"
       d="M 192.52895,49.384614 203.46164,53.156396 203.40697,108.96779 192.58362,101.58823 z"
       id="path3206"
       inkscape:connector-curvature="0" />
    <path
       style="fill:#584a49;fill-opacity:1;stroke:#000000;stroke-width:0.53869134px;stroke-linecap:butt;stroke-linejoin:miter;stroke-opacity:1"
       d="M 192.63827,101.69755 175.5286,90.218221 175.36462,43.535625 192.58362,49.493936 z"
       id="path3208"
       inkscape:connector-curvature="0" />
    <path
       style="fill:#483d3c;fill-opacity:1;stroke:#000000;stroke-width:0.53869134px;stroke-linecap:butt;stroke-linejoin:miter;stroke-opacity:1"
       d="M 175.41927,43.535625 192.58362,49.548611 192.58362,-55.18659 175.30995,-49.501584 z"
       id="path3210"
       inkscape:connector-curvature="0" />
    <path
       style="fill:#716064;fill-opacity:1;stroke:#000000;stroke-width:0.53869134px;stroke-linecap:butt;stroke-linejoin:miter;stroke-opacity:1"
       d="M 148.52485,11.229526 150.00077,11.229526 150.00077,-17.687448 148.41552,-17.687448 z"
       id="path3212"
       inkscape:connector-curvature="0" />
    <path
       style="fill:#7c686c;fill-opacity:1;stroke:#000000;stroke-width:0.53869134px;stroke-linecap:butt;stroke-linejoin:miter;stroke-opacity:1"
       d="M 148.57953,11.17485 148.41552,-17.687448 130.59524,-17.523464 126.98744,11.338847 z"
       id="path3214"
       inkscape:connector-curvature="0" />
    <path
       style="fill:#796669;fill-opacity:1;stroke:#000000;stroke-width:0.53869134px;stroke-linecap:butt;stroke-linejoin:miter;stroke-opacity:1"
       d="M 127.04212,11.229526 130.59524,-17.468803 114.46951,-17.687448 110.5884,11.338847 z"
       id="path3216"
       inkscape:connector-curvature="0" />
    <path
       style="fill:#746264;fill-opacity:1;stroke:#000000;stroke-width:0.53869134px;stroke-linecap:butt;stroke-linejoin:miter;stroke-opacity:1"
       d="M 110.64307,11.393508 114.57883,-17.632787 -102.10714,-17.742123 -101.99781,11.284187 z"
       id="path3218"
       inkscape:connector-curvature="0" />
    <path
       style="fill:#6a595a;fill-opacity:1;stroke:#000000;stroke-width:0.53869134px;stroke-linecap:butt;stroke-linejoin:miter;stroke-opacity:1"
       d="M 150.43807,73.98318 130.92322,92.404762 126.1675,73.70986 z"
       id="path3220"
       inkscape:connector-curvature="0" />
    <path
       style="fill:#6c5b5c;fill-opacity:1;stroke:#000000;stroke-width:0.53869134px;stroke-linecap:butt;stroke-linejoin:miter;stroke-opacity:1"
       d="M 130.86854,92.404762 126.05816,73.655198 113.64955,98.199094 z"
       id="path3222"
       inkscape:connector-curvature="0" />
    <path
       style="fill:#695959;fill-opacity:1;stroke:#000000;stroke-width:0.53869134px;stroke-linecap:butt;stroke-linejoin:miter;stroke-opacity:1"
       d="M 113.75888,98.144424 -103.69238,133.34769 -0.81573391,74.365821 3.1746921,75.185779 126.11283,73.70986 z"
       id="path3224"
       inkscape:connector-curvature="0" />
    <path
       style="fill:#5f677b;fill-opacity:1;stroke:#000000;stroke-width:0.53869134px;stroke-linecap:butt;stroke-linejoin:miter;stroke-opacity:1"
       d="M 175.41927,76.935004 147.32226,76.989665 150.43807,73.873843 126.05816,73.655198 2.9560341,75.185779 2.9560341,59.770668 175.50129,61.383253 z"
       id="path3226"
       inkscape:connector-curvature="0" />
    <path
       style="fill:#555d70;fill-opacity:1;stroke:#000000;stroke-width:0.53869134px;stroke-linecap:butt;stroke-linejoin:miter;stroke-opacity:1"
       d="M 3.0653701,59.825329 C 3.0653701,59.825329 3.2840281,75.185779 3.0653701,75.185779 2.8467121,75.185779 -136.49046,43.535625 -136.49046,43.535625 L -136.59979,34.406832 z"
       id="path3228"
       inkscape:connector-curvature="0" />
    <path
       style="fill:#000000;fill-opacity:1;stroke:#000000;stroke-width:0.53869134px;stroke-linecap:butt;stroke-linejoin:miter;stroke-opacity:1"
       d="M -14.618261,68.161522 C -14.645591,67.860871 -14.126296,64.881718 -14.126296,64.881718 L -14.372271,63.2418 -16.859463,63.2418 -16.75014,64.41707 -19.073334,64.307747 C -19.073334,64.307747 -20.057276,63.815769 -20.057276,63.706448 -20.057276,63.597125 -20.084608,62.695175 -20.084608,62.695175 L -21.041218,61.683903 -21.669848,61.683903 -22.243817,63.460459 -22.571798,66.603612 -20.467248,67.013584 -20.385256,65.728991 -19.975284,65.455673 -19.346654,66.084302 -16.914124,66.00231 -16.886793,68.134191 z"
       id="path3249"
       inkscape:connector-curvature="0" />
    <path
       style="fill:#000000;fill-opacity:1;stroke:#000000;stroke-width:0.53869134px;stroke-linecap:butt;stroke-linejoin:miter;stroke-opacity:1"
       d="M -23.036445,66.466958 C -23.036445,66.220969 -23.145767,64.936378 -23.145767,64.936378 L -25.824272,60.645287 -27.136194,60.645287 -30.771325,63.979767 -30.880646,64.963707 -29.268075,65.073031 C -29.268075,65.073031 -28.639444,64.307747 -28.502779,64.280416 -28.366125,64.253087 -27.327522,64.307747 -27.327522,64.307747 L -26.890206,65.100361 -25.113651,64.909047 -24.239032,66.630941 z"
       id="path3251"
       inkscape:connector-curvature="0" />
    <path
       style="fill:#555d70;fill-opacity:1;stroke:#000000;stroke-width:0.53869134px;stroke-linecap:butt;stroke-linejoin:miter;stroke-opacity:1"
       d="M -25.851603,63.651786 C -25.851603,63.651786 -27.054204,63.624456 -27.054204,63.460459 -27.054204,63.296476 -26.343581,62.257859 -26.343581,62.257859 z"
       id="path3253"
       inkscape:connector-curvature="0" />
    <path
       style="fill:#000000;fill-opacity:1;stroke:#000000;stroke-width:0.53869134px;stroke-linecap:butt;stroke-linejoin:miter;stroke-opacity:1"
       d="M -30.98997,65.01837 C -30.98997,64.881718 -30.71665,60.289976 -30.71665,60.289976 L -31.372624,59.470017 -33.231171,59.415357 -34.515762,60.481303 -35.089732,60.535965 -37.248943,58.376754 -38.314876,58.376754 -39.244157,58.458746 -39.544807,61.000611 -39.490145,63.296476 -37.194283,63.351137 -37.084946,60.645287 -35.472374,62.203197 -33.39517,62.121206 -33.340494,64.007097 -32.356567,64.827042 z"
       id="path3255"
       inkscape:connector-curvature="0" />
    <path
       style="fill:#000000;fill-opacity:1;stroke:#000000;stroke-width:0.53869134px;stroke-linecap:butt;stroke-linejoin:miter;stroke-opacity:1"
       d="M -40.884059,62.722506 C -40.884059,62.558509 -39.927448,61.383253 -39.927448,61.383253 L -39.790796,58.540737 -41.020726,57.365483 -41.430698,57.338151 -43.398581,58.158095 -43.97255,58.431415 -45.284472,57.857446 -47.115689,56.244874 -47.990308,56.217543 -48.700931,57.502134 -49.028911,61.055273 -46.623725,61.191926 -45.749106,59.333365 -44.355192,60.399298 -42.660614,60.180653 -42.16865,63.023157 z"
       id="path3257"
       inkscape:connector-curvature="0" />
    <path
       style="fill:#000000;fill-opacity:1;stroke:#000000;stroke-width:0.53869134px;stroke-linecap:butt;stroke-linejoin:miter;stroke-opacity:1"
       d="M -51.43411,59.388025 C -51.43411,59.278704 -51.488771,58.294762 -51.488771,58.294762 L -54.631924,57.611458 -54.659253,56.545523 -54.057954,57.092162 -50.969464,57.092162 -50.914802,56.463532 -53.647982,56.32688 -54.194607,55.998885 -54.877898,55.670917 -54.495258,54.659646 -52.718702,55.069618 -50.723488,55.807571 -49.466227,56.05356 -49.384222,58.540737 -49.848869,60.043988 -55.069226,60.207971 -55.178549,58.376754 -52.39072,58.622742 -51.543432,59.196698 z"
       id="path3261"
       inkscape:connector-curvature="0" />
    <path
       style="fill:#000000;fill-opacity:1;stroke:#000000;stroke-width:0.53869134px;stroke-linecap:butt;stroke-linejoin:miter;stroke-opacity:1"
       d="M -55.834523,59.579353 C -55.834523,59.415357 -55.205892,57.392812 -55.205892,57.392812 L -55.260554,54.714294 -56.135174,54.058347 -59.879612,54.085663 -60.97289,54.659646 -61.02755,55.780241 -60.234922,56.32688 -61.246195,56.600185 -61.902156,57.228815 -61.984161,58.185441 C -61.984161,58.185441 -60.016265,58.568081 -59.934273,58.349423 -59.852281,58.130765 -58.950332,57.502134 -58.950332,57.502134 L -57.529087,57.201484 -57.501757,59.388025 z"
       id="path3263"
       inkscape:connector-curvature="0" />
    <path
       style="fill:#555d70;fill-opacity:1;stroke:#000000;stroke-width:0.53869134px;stroke-linecap:butt;stroke-linejoin:miter;stroke-opacity:1"
       d="M -57.36509,56.32688 C -57.392421,56.190213 -57.419751,55.397599 -57.419751,55.397599 L -58.431037,55.288263 -58.458368,56.35421 z"
       id="path3265"
       inkscape:connector-curvature="0" />
    <path
       style="fill:#000000;fill-opacity:1;stroke:#000000;stroke-width:0.53869134px;stroke-linecap:butt;stroke-linejoin:miter;stroke-opacity:1"
       d="M -64.553345,55.916892 -67.25918,55.534252 -67.915142,55.15161 -68.270453,55.971568 -69.008418,56.873504 -70.293011,56.736852 -70.265667,54.468319 -69.60972,51.571156 -67.805819,51.680477 -67.751157,53.648359 -66.685211,53.675705 -64.553345,54.140338 -64.170702,53.29305 -63.678725,52.41843 -62.804106,52.992399 -61.956832,53.484378 -62.011493,55.370269 -62.776776,57.912106 -64.662666,57.720793 z"
       id="path3267"
       inkscape:connector-curvature="0" />
    <path
       style="fill:#000000;fill-opacity:1;stroke:#000000;stroke-width:0.53869134px;stroke-linecap:butt;stroke-linejoin:miter;stroke-opacity:1"
       d="M -71.522941,56.35421 -70.839636,51.079178 -73.79146,50.696536 -76.251321,50.423217 -76.114668,51.243174 -73.463479,51.817144 -73.108169,52.281777 -73.272165,52.773755 -74.092109,52.71908 -76.169329,52.090449 -76.251321,53.402371 -74.092109,53.429716 -72.998845,54.003671 -73.545484,54.522979 -74.748071,54.167669 -76.907282,53.785013 -77.371916,55.096948 z"
       id="path3269"
       inkscape:connector-curvature="0" />
    <path
       style="fill:#000000;fill-opacity:1;stroke:#000000;stroke-width:0.53869134px;stroke-linecap:butt;stroke-linejoin:miter;stroke-opacity:1"
       d="M -77.317254,54.796299 -76.82529,53.29305 -77.262592,52.71908 -79.148483,49.411944 -80.870378,49.302623 -84.724152,52.281777 -84.860819,53.402371 -79.640462,52.855747 z"
       id="path3271"
       inkscape:connector-curvature="0" />
    <path
       style="fill:#555d70;fill-opacity:1;stroke:#000000;stroke-width:0.53869134px;stroke-linecap:butt;stroke-linejoin:miter;stroke-opacity:1"
       d="M -79.61313,51.844475 -80.979714,51.598485 -80.487737,50.778527 -79.749783,50.860533 z"
       id="path3273"
       inkscape:connector-curvature="0" />
    <path
       style="fill:#030303;fill-opacity:1;stroke:#000000;stroke-width:0.53869134px;stroke-linecap:butt;stroke-linejoin:miter;stroke-opacity:1"
       d="M -84.833489,53.129066 C -84.833489,52.992399 -84.532838,48.264005 -84.532838,48.264005 L -88.605257,47.116081 -91.174454,47.280065 -93.114992,48.400673 -93.142337,50.013243 -89.944524,52.172455 z"
       id="path3275"
       inkscape:connector-curvature="0" />
    <path
       style="fill:#555d70;fill-opacity:1;stroke:#000000;stroke-width:0.53869134px;stroke-linecap:butt;stroke-linejoin:miter;stroke-opacity:1"
       d="M -87.074691,51.243174 -88.687264,51.133838 -90.737138,49.876578 -90.327166,48.701322 -88.523265,48.947311 -86.692036,49.958583 -86.965369,51.079178 z"
       id="path3277"
       inkscape:connector-curvature="0" />
    <path
       style="fill:#565e76;fill-opacity:1;stroke:#000000;stroke-width:0.53869134px;stroke-linecap:butt;stroke-linejoin:miter;stroke-opacity:1"
       d="M 3.0653701,59.825329 2.8467121,11.393508 150.05544,11.229526 150.05544,-17.632787 3.0107081,-17.742123 3.0653701,-65.845963 175.20062,-67.376543 175.36462,61.355923 z"
       id="path3295"
       inkscape:connector-curvature="0" />
    <path
       style="fill:#040404;fill-opacity:1;stroke:#000000;stroke-width:0.53869134px;stroke-linecap:butt;stroke-linejoin:miter;stroke-opacity:1"
       d="M 144.69841,39.217205 144.75308,39.873165 141.85591,40.474464 139.83335,43.371628 139.88801,45.55817 140.70798,47.854033 143.00384,49.384614 145.68236,49.931253 153.28057,50.095236 153.17125,30.68971 149.67278,30.143072 147.32226,30.143072 143.8238,31.127014 142.01989,32.876253 141.47328,35.172115 142.07457,37.686638 143.60514,39.162543 z"
       id="path3283"
       inkscape:connector-curvature="0" />
    <path
       style="fill:#565e76;fill-opacity:1;stroke:#000000;stroke-width:0.53869134px;stroke-linecap:butt;stroke-linejoin:miter;stroke-opacity:1"
       d="M 150.60206,47.471392 150.54741,41.239748 144.69841,41.458407 143.05852,42.387687 142.94918,45.612831 145.35437,47.36207 z"
       id="path3279"
       inkscape:connector-curvature="0" />
    <path
       style="fill:#565e76;fill-opacity:1;stroke:#000000;stroke-width:0.53869134px;stroke-linecap:butt;stroke-linejoin:miter;stroke-opacity:1"
       d="M 150.43807,38.670579 146.6663,38.615919 144.64373,37.030677 144.58907,33.860195 146.39298,32.712256 150.54741,32.930913 z"
       id="path3281"
       inkscape:connector-curvature="0" />
    <path
       style="fill:#040404;fill-opacity:1;stroke:#000000;stroke-width:0.53869134px;stroke-linecap:butt;stroke-linejoin:miter;stroke-opacity:1"
       d="M 137.04552,50.095236 134.42168,49.931253 134.36701,40.966443 126.93277,40.802446 126.98744,38.233263 134.42168,38.233263 134.47634,32.876253 126.87812,32.712256 126.93277,30.143072 137.04552,30.197747 z"
       id="path3285"
       inkscape:connector-curvature="0" />
    <path
       style="fill:#040404;fill-opacity:1;stroke:#000000;stroke-width:0.53869134px;stroke-linecap:butt;stroke-linejoin:miter;stroke-opacity:1"
       d="M 124.69158,48.509995 124.63691,45.230189 121.30245,47.08875 117.74931,47.198073 116.60138,46.15947 116.7107,43.480965 123.98094,38.12394 124.5276,36.702696 124.58225,33.313555 122.39571,30.799047 120.42783,30.30707 116.54671,30.36173 114.46951,31.291011 114.36017,34.297496 116.43738,32.985575 121.24778,32.930913 121.9584,33.532213 121.90374,36.320041 114.63349,41.458407 113.97754,42.879665 113.86821,46.870093 116.43738,49.384614 117.80398,49.985914 121.57576,49.821916 z"
       id="path3287"
       inkscape:connector-curvature="0" />
    <path
       style="fill:#040404;fill-opacity:1;stroke:#000000;stroke-width:0.53869134px;stroke-linecap:butt;stroke-linejoin:miter;stroke-opacity:1"
       d="M 111.73633,44.628889 111.79099,42.114368 104.9034,42.059706 104.95806,44.683551 z"
       id="path3289"
       inkscape:connector-curvature="0" />
    <path
       style="fill:#040404;fill-opacity:1;stroke:#000000;stroke-width:0.53869134px;stroke-linecap:butt;stroke-linejoin:miter;stroke-opacity:1"
       d="M 97.742499,49.493936 95.063982,49.384614 95.063982,30.252408 97.742499,30.252408 z"
       id="path3291"
       inkscape:connector-curvature="0" />
    <path
       style="fill:#040404;fill-opacity:1;stroke:#000000;stroke-width:0.53869134px;stroke-linecap:butt;stroke-linejoin:miter;stroke-opacity:1"
       d="M 87.411092,48.947311 87.465762,46.21413 84.841912,47.198073 81.562102,47.252747 79.922192,45.722166 80.031522,42.879665 82.163402,40.966443 84.349942,40.911781 84.295282,38.342598 81.616762,38.233263 80.578162,37.085338 80.632822,33.914855 81.726102,32.821577 85.935182,32.821577 86.809782,33.368217 86.864462,30.744372 85.497882,30.088411 81.234122,30.088411 78.610279,31.673653 78.008973,33.040236 77.899656,37.577302 80.086192,39.381201 80.031522,39.873165 77.95432,40.857107 77.353015,42.16903 77.353015,46.21413 78.008973,47.307408 80.086192,49.548611 83.092682,49.931253 z"
       id="path3293"
       inkscape:connector-curvature="0" />
    <path
       style="fill:#32374d;fill-opacity:1;stroke:#000000;stroke-width:0.53869134px;stroke-linecap:butt;stroke-linejoin:miter;stroke-opacity:1"
       d="M 175.14595,-67.267221 175.25529,-83.010298 148.90749,-83.119621 150.43807,-79.949138 2.9013721,-81.206399 3.0653701,-65.73664 z"
       id="path3297"
       inkscape:connector-curvature="0" />
    <path
       style="fill:#685859;fill-opacity:1;stroke:#000000;stroke-width:0.53869134px;stroke-linecap:butt;stroke-linejoin:miter;stroke-opacity:1"
       d="M 150.65673,-79.839816 126.65945,-80.167797 130.92322,-98.261392 148.85282,-82.900963 z"
       id="path3299"
       inkscape:connector-curvature="0" />
    <path
       style="fill:#695959;fill-opacity:1;stroke:#000000;stroke-width:0.53869134px;stroke-linecap:butt;stroke-linejoin:miter;stroke-opacity:1"
       d="M 126.65945,-80.167797 130.97788,-98.261392 112.39229,-104.71168 -103.58305,-139.53234 -0.54241591,-80.441116 2.8467121,-80.987741 z"
       id="path3301"
       inkscape:connector-curvature="0" />
    <path
       style="fill:#353b55;fill-opacity:1;stroke:#000000;stroke-width:0.53869134px;stroke-linecap:butt;stroke-linejoin:miter;stroke-opacity:1"
       d="M 3.0107081,-65.627318 2.8467121,-80.851088 -0.59707691,-80.523107 -136.52927,-49.456758 -136.49061,-40.392653 z"
       id="path3303"
       inkscape:connector-curvature="0" />
    <path
       style="fill:#51586e;fill-opacity:1;stroke:#000000;stroke-width:0.53869134px;stroke-linecap:butt;stroke-linejoin:miter;stroke-opacity:1"
       d="M 2.9883991,-17.722725 2.9883991,-65.613666 -136.66455,-40.373325 -136.58726,34.497359 3.0656981,59.892314 2.8724421,11.460221 -101.99289,11.228309 -102.0702,-17.684069 z"
       id="path3305"
       inkscape:connector-curvature="0" />
    <path
       style="fill:#695959;fill-opacity:1;stroke:#000000;stroke-width:0.53869134px;stroke-linecap:butt;stroke-linejoin:miter;stroke-opacity:1"
       d="M -136.62589,8.3679962 -146.79161,8.4452952 -146.71431,-14.630488 -136.58726,-14.59183 z"
       id="path3307"
       inkscape:connector-curvature="0" />
    <path
       style="fill:#504651;fill-opacity:1;stroke:#000000;stroke-width:0.53869134px;stroke-linecap:butt;stroke-linejoin:miter;stroke-opacity:1"
       d="M -146.75297,8.4839512 -146.71431,9.1797052 -147.33275,9.1797052 -147.98986,8.2520392 -147.8739,-14.398574 -146.98488,-15.094327 -146.71431,-14.553174 z"
       id="path3309"
       inkscape:connector-curvature="0" />
    <path
       style="fill:#615360;fill-opacity:1;stroke:#000000;stroke-width:0.53869134px;stroke-linecap:butt;stroke-linejoin:miter;stroke-opacity:1"
       d="M -147.37141,9.1410492 -148.10582,8.0974262 -167.78015,7.9814702 -167.74149,9.1410492 z"
       id="path3311"
       inkscape:connector-curvature="0" />
    <path
       style="fill:#5f504d;fill-opacity:1;stroke:#000000;stroke-width:0.53869134px;stroke-linecap:butt;stroke-linejoin:miter;stroke-opacity:1"
       d="M -146.98488,-15.094327 -147.98986,-14.205304 -167.85745,-14.050691 -167.74149,-15.13297 z"
       id="path3313"
       inkscape:connector-curvature="0" />
    <path
       style="fill:#695959;fill-opacity:1;stroke:#000000;stroke-width:0.53869134px;stroke-linecap:butt;stroke-linejoin:miter;stroke-opacity:1"
       d="M -147.98986,8.0974262 -147.8739,-14.205304 -167.8961,-14.012048 -167.8188,7.9814702 z"
       id="path3315"
       inkscape:connector-curvature="0" />
    <path
       style="fill:#695959;fill-opacity:1;stroke:#000000;stroke-width:0.53869134px;stroke-linecap:butt;stroke-linejoin:miter;stroke-opacity:1"
       d="M -146.86892,9.2570052 -146.83028,53.359966 -170.48584,53.24401 -170.44718,50.035828 -167.78015,50.074471 -167.8188,16.71702 -170.44718,16.678363 -170.48584,13.392868 -167.8188,13.431524 -167.8188,9.2570052 z"
       id="path3317"
       inkscape:connector-curvature="0" />
    <path
       style="fill:#695959;fill-opacity:1;stroke:#000000;stroke-width:0.53869134px;stroke-linecap:butt;stroke-linejoin:miter;stroke-opacity:1"
       d="M -146.86892,-15.13297 -167.85745,-15.171627 -167.8961,-19.384789 -170.48584,-19.384789 -170.48584,-22.167801 -167.8188,-22.167801 -167.85745,-55.525267 -170.52451,-55.525267 -170.40855,-59.351902 -146.79161,-59.274588 z"
       id="path3319"
       inkscape:connector-curvature="0" />
    <path
       style="fill:#131314;fill-opacity:1;stroke:#000000;stroke-width:0.53869134px;stroke-linecap:butt;stroke-linejoin:miter;stroke-opacity:1"
       d="M -167.78015,-22.167801 -197.42693,-22.245115 -197.46555,-55.525267 -167.78015,-55.525267 z"
       id="path3321"
       inkscape:connector-curvature="0" />
    <path
       style="fill:#131314;fill-opacity:1;stroke:#000000;stroke-width:0.53869134px;stroke-linecap:butt;stroke-linejoin:miter;stroke-opacity:1"
       d="M -167.85745,13.470181 -167.8961,-19.423445 -197.38825,-19.384789 -197.34963,13.392868 z"
       id="path3323"
       inkscape:connector-curvature="0" />
    <path
       style="fill:#131314;fill-opacity:1;stroke:#000000;stroke-width:0.53869134px;stroke-linecap:butt;stroke-linejoin:miter;stroke-opacity:1"
       d="M -167.74149,50.074471 -167.78015,16.755676 -197.38825,16.639719 -197.38825,49.997171 z"
       id="path3325"
       inkscape:connector-curvature="0" />
    <path
       style="fill:#ff0000;stroke:#000000;stroke-width:1px;stroke-linecap:butt;stroke-linejoin:miter;stroke-opacity:1"
       d="M -198.09846,-55.743277 -234.4788,-59.979344 -224.51159,-49.513765 -257.65258,-52.753111 -233.73126,-43.782615 -276.09194,-33.566217 -236.22307,-33.566217 -253.91488,-17.618668 -216.28863,-27.336705 -218.03289,-14.628503 -197.35092,-23.100638 z"
       id="path3049"
       inkscape:connector-curvature="0" />
    <path
       style="fill:#ff0000;stroke:#000000;stroke-width:1px;stroke-linecap:butt;stroke-linejoin:miter;stroke-opacity:1"
       d="M -197.84927,-19.362931 -234.22961,-23.598998 -224.2624,-13.133419 -257.40339,-16.372765 -233.48207,-7.4022693 -275.84275,2.8141287 -235.97388,2.8141287 -253.66569,18.761678 -216.03944,9.0436407 -217.7837,21.751843 -197.10173,13.279708 z"
       id="flame2"
       inkscape:connector-curvature="0"
       inkscape:label="#path3049-4" />
    <path
       style="fill:#ff0000;stroke:#000000;stroke-width:1px;stroke-linecap:butt;stroke-linejoin:miter;stroke-opacity:1"
       d="M -197.6001,16.768234 -233.98044,12.532167 -224.01323,22.997746 -257.15422,19.7584 -233.2329,28.728896 -275.59358,38.945294 -235.72471,38.945294 -253.41652,54.892843 -215.79027,45.174806 -217.53453,57.883008 -196.85256,49.410873 z"
       id="flame3"
       inkscape:connector-curvature="0"
       inkscape:label="#path3049-4-0" />
  </g>
</svg>
