<?xml version="1.0" encoding="UTF-8" standalone="no"?>
<!-- Created with Inkscape (http://www.inkscape.org/) -->

<svg
   xmlns:dc="http://purl.org/dc/elements/1.1/"
   xmlns:cc="http://creativecommons.org/ns#"
   xmlns:rdf="http://www.w3.org/1999/02/22-rdf-syntax-ns#"
   xmlns:svg="http://www.w3.org/2000/svg"
   xmlns="http://www.w3.org/2000/svg"
   xmlns:sodipodi="http://sodipodi.sourceforge.net/DTD/sodipodi-0.dtd"
   xmlns:inkscape="http://www.inkscape.org/namespaces/inkscape"
   width="744.09448819"
   height="1052.3622047"
   id="svg3236"
   version="1.1"
   inkscape:version="0.48.3.1 r9886"
   sodipodi:docname="player-OtherSideTemp.svg">
  <defs
     id="defs3238" />
  <sodipodi:namedview
     id="base"
     pagecolor="#ffffff"
     bordercolor="#666666"
     borderopacity="1.0"
     inkscape:pageopacity="0.0"
     inkscape:pageshadow="2"
     inkscape:zoom="0.48530759"
     inkscape:cx="270.63681"
     inkscape:cy="938.65985"
     inkscape:document-units="px"
     inkscape:current-layer="layer1"
     showgrid="false"
     inkscape:window-width="1917"
     inkscape:window-height="1058"
     inkscape:window-x="0"
     inkscape:window-y="19"
     inkscape:window-maximized="0" />
  <metadata
     id="metadata3241">
    <rdf:RDF>
      <cc:Work
         rdf:about="">
        <dc:format>image/svg+xml</dc:format>
        <dc:type
           rdf:resource="http://purl.org/dc/dcmitype/StillImage" />
        <dc:title />
      </cc:Work>
    </rdf:RDF>
  </metadata>
  <g
     inkscape:label="Layer 1"
     inkscape:groupmode="layer"
     id="layer1">
    <path
       style="fill:#73615d;fill-opacity:1;stroke:#000000;stroke-width:0.57071579px;stroke-linecap:butt;stroke-linejoin:miter;stroke-opacity:1"
       d="M 297.27414,-106.25007 267.38008,-114.80878 267.38008,-79.058753 297.31509,-87.863168 z"
       id="path3309"
       inkscape:connector-curvature="0" />
    <path
       style="fill:#4f4340;fill-opacity:1;stroke:#000000;stroke-width:0.57071579px;stroke-linecap:butt;stroke-linejoin:miter;stroke-opacity:1"
       d="M 267.42103,-114.76782 267.25723,-78.976849 203.45593,-48.755186 203.12832,-84.218548 z"
       id="path3311"
       inkscape:connector-curvature="0" />
    <path
       style="fill:#3d343a;fill-opacity:1;stroke:#000000;stroke-width:0.57071579px;stroke-linecap:butt;stroke-linejoin:miter;stroke-opacity:1"
       d="M 232.94048,-62.678444 232.94048,-16.322176 221.47426,-13.455619 221.47426,-57.43675 z"
       id="path3313"
       inkscape:connector-curvature="0" />
    <path
       style="fill:#42383f;fill-opacity:1;stroke:#000000;stroke-width:0.57071579px;stroke-linecap:butt;stroke-linejoin:miter;stroke-opacity:1"
       d="M 232.94048,-62.760347 232.85858,-16.076472 267.25723,-29.180719 267.17532,-79.140656 z"
       id="path3315"
       inkscape:connector-curvature="0" />
    <path
       style="fill:#3c333b;fill-opacity:1;stroke:#000000;stroke-width:0.57071579px;stroke-linecap:butt;stroke-linejoin:miter;stroke-opacity:1"
       d="M 221.47426,-13.455619 203.21022,-13.947029 203.37402,-48.837084 221.47426,-57.354846 z"
       id="path3317"
       inkscape:connector-curvature="0" />
    <path
       style="fill:#554952;fill-opacity:1;stroke:#000000;stroke-width:0.57071579px;stroke-linecap:butt;stroke-linejoin:miter;stroke-opacity:1"
       d="M 297.23319,-87.904118 267.25723,-78.976849 267.25723,121.43621 297.31509,112.42705 z"
       id="path3319"
       inkscape:connector-curvature="0" />
    <path
       style="fill:#473c44;fill-opacity:1;stroke:#000000;stroke-width:0.57071579px;stroke-linecap:butt;stroke-linejoin:miter;stroke-opacity:1"
       d="M 267.25723,-29.098814 232.85858,-16.076472 233.10428,67.463099 267.25723,71.23057 z"
       id="path3321"
       inkscape:connector-curvature="0" />
    <path
       style="fill:#372f36;fill-opacity:1;stroke:#000000;stroke-width:0.57071579px;stroke-linecap:butt;stroke-linejoin:miter;stroke-opacity:1"
       d="M 232.94048,-16.240273 221.63807,-13.455619 221.63807,65.087952 233.26809,67.463099 z"
       id="path3323"
       inkscape:connector-curvature="0" />
    <path
       style="fill:#453b44;fill-opacity:1;stroke:#000000;stroke-width:0.57071579px;stroke-linecap:butt;stroke-linejoin:miter;stroke-opacity:1"
       d="M 221.63807,-13.537523 203.04642,-13.947029 203.29213,55.914982 221.55617,65.087952 z"
       id="path3325"
       inkscape:connector-curvature="0" />
    <path
       style="fill:#463c45;fill-opacity:1;stroke:#000000;stroke-width:0.57071579px;stroke-linecap:butt;stroke-linejoin:miter;stroke-opacity:1"
       d="M 221.39236,99.568502 221.63807,65.00605 203.29213,55.996884 203.04642,90.641237 z"
       id="path3327"
       inkscape:connector-curvature="0" />
    <path
       style="fill:#443a43;fill-opacity:1;stroke:#000000;stroke-width:0.57071579px;stroke-linecap:butt;stroke-linejoin:miter;stroke-opacity:1"
       d="M 233.02238,67.463099 221.55617,65.251756 221.31046,99.650404 232.85858,105.0559 z"
       id="path3329"
       inkscape:connector-curvature="0" />
    <path
       style="fill:#3b323a;fill-opacity:1;stroke:#000000;stroke-width:0.57071579px;stroke-linecap:butt;stroke-linejoin:miter;stroke-opacity:1"
       d="M 233.02238,104.974 267.25723,121.27241 267.25723,71.23057 233.10428,67.545001 z"
       id="path3331"
       inkscape:connector-curvature="0" />
    <path
       style="fill:#5b6477;fill-opacity:1;stroke:#000000;stroke-width:0.57071579px;stroke-linecap:butt;stroke-linejoin:miter;stroke-opacity:1"
       d="M 203.29213,-65.790705 176.59222,-65.708802 C 176.59222,-65.708802 175.36371,-65.790705 175.36371,-65.217393 175.36371,-64.64408 175.19989,-47.199056 175.19989,-47.199056 L 203.37402,-47.93617 z"
       id="path3333"
       inkscape:connector-curvature="0" />
    <path
       style="fill:#715f5e;fill-opacity:1;stroke:#000000;stroke-width:0.57071579px;stroke-linecap:butt;stroke-linejoin:miter;stroke-opacity:1"
       d="M 151.93985,-80.942486 155.78923,-57.764352 173.64376,-46.707647 176.75603,-43.431584 175.4456,-47.117153 175.0361,-47.117153 175.5275,-65.626899 176.91982,-65.954507 172.82475,-69.23057 z"
       id="path3335"
       inkscape:connector-curvature="0" />
    <path
       style="fill:#383037;fill-opacity:1;stroke:#000000;stroke-width:0.57071579px;stroke-linecap:butt;stroke-linejoin:miter;stroke-opacity:1"
       d="M 155.78923,-57.682454 151.20274,-43.267782 176.83793,-43.185879 173.56186,-46.78955 z"
       id="path3337"
       inkscape:connector-curvature="0" />
    <path
       style="fill:#3a3138;fill-opacity:1;stroke:#000000;stroke-width:0.57071579px;stroke-linecap:butt;stroke-linejoin:miter;stroke-opacity:1"
       d="M 151.20274,-43.185879 138.99942,-61.122319 155.87113,-57.682454 z"
       id="path3339"
       inkscape:connector-curvature="0" />
    <path
       style="fill:#756360;fill-opacity:1;stroke:#000000;stroke-width:0.57071579px;stroke-linecap:butt;stroke-linejoin:miter;stroke-opacity:1"
       d="M 138.99942,-61.163268 134.45388,-84.750908 151.93985,-80.901538 155.83019,-57.6415 z"
       id="path3341"
       inkscape:connector-curvature="0" />
    <path
       style="fill:#372f36;fill-opacity:1;stroke:#000000;stroke-width:0.57071579px;stroke-linecap:butt;stroke-linejoin:miter;stroke-opacity:1"
       d="M 151.28465,-43.267782 138.87657,-61.368023 -92.730351,-88.050408 16.493812,-43.920596 19.505291,-44.094334 z"
       id="path3343"
       inkscape:connector-curvature="0" />
    <path
       style="fill:#776461;fill-opacity:1;stroke:#000000;stroke-width:0.57071579px;stroke-linecap:butt;stroke-linejoin:miter;stroke-opacity:1"
       d="M 134.46287,-84.923088 139.03801,-61.178711 -92.672447,-88.050408 -92.556617,-110.40487 z"
       id="path3345"
       inkscape:connector-curvature="0" />
    <path
       style="fill:#525a71;fill-opacity:1;stroke:#000000;stroke-width:0.57071579px;stroke-linecap:butt;stroke-linejoin:miter;stroke-opacity:1"
       d="M 20.663557,-44.094334 20.721472,-21.566124 203.32159,-27.357441 203.32159,-47.9166 175.29163,-47.163729 176.68154,-43.051898 z"
       id="path3347"
       inkscape:connector-curvature="0" />
    <path
       style="fill:#495062;fill-opacity:1;stroke:#000000;stroke-width:0.57071579px;stroke-linecap:butt;stroke-linejoin:miter;stroke-opacity:1"
       d="M 20.721472,-44.036423 20.721472,-21.566124 -127.07285,-7.087841 -126.95702,-22.60856 17.478334,-43.746858 z"
       id="path3349"
       inkscape:connector-curvature="0" />
    <path
       style="fill:#040404;fill-opacity:1;stroke:#000000;stroke-width:0.57071579px;stroke-linecap:butt;stroke-linejoin:miter;stroke-opacity:1"
       d="M 1.899704,-36.333973 2.363002,-27.386393 0.13334697,-27.299525 0.10439497,-30.803269 -3.8047385,-30.108314 -3.9205683,-26.691439 -5.3973504,-26.749349 -5.9764782,-30.079356 -6.092308,-35.117801 -5.3683983,-35.639019 C -5.3683983,-35.639019 -4.325962,-35.986493 -4.325962,-35.783798 -4.325962,-35.581102 -3.9205683,-31.961531 -3.9205683,-31.961531 L -3.109781,-31.961531 0.10439497,-32.309011 -0.38786603,-36.420842 z"
       id="path3351"
       inkscape:connector-curvature="0" />
    <path
       style="fill:#040404;fill-opacity:1;stroke:#000000;stroke-width:0.57071579px;stroke-linecap:butt;stroke-linejoin:miter;stroke-opacity:1"
       d="M -6.7003985,-35.175711 -8.3219625,-35.088843 -9.0458722,-32.453796 -12.433793,-32.309011 -13.534144,-33.554142 -13.621011,-34.393882 -14.489713,-34.393882 -15.271538,-33.756838 -11.130755,-25.822741 -9.5960584,-25.76483 z"
       id="path3353"
       inkscape:connector-curvature="0" />
    <path
       style="fill:#495062;fill-opacity:1;stroke:#000000;stroke-width:0.57071579px;stroke-linecap:butt;stroke-linejoin:miter;stroke-opacity:1"
       d="M -9.8566701,-30.7164 -11.420319,-30.745359 -11.30449,-29.297526 -10.638484,-28.921093 -9.9145744,-29.065879 z"
       id="path3355"
       inkscape:connector-curvature="0" />
    <path
       style="fill:#040404;fill-opacity:1;stroke:#000000;stroke-width:0.57071579px;stroke-linecap:butt;stroke-linejoin:miter;stroke-opacity:1"
       d="M -15.908591,-33.959539 C -15.908591,-33.698927 -15.329453,-25.011959 -15.329453,-25.011959 L -16.835197,-25.011959 -19.238586,-27.849701 -19.730857,-27.79179 -21.728852,-24.461783 -23.697895,-23.79578 -24.334948,-32.859188 -22.973986,-33.698927 C -22.973986,-33.698927 -22.221113,-33.119793 -22.221113,-33.003972 -22.221113,-32.888145 -22.076331,-27.733874 -22.076331,-27.733874 L -21.555118,-27.733874 -19.672932,-30.600573 -19.209634,-30.745359 -18.051378,-29.036921 -17.443277,-28.950052 -17.47224,-34.104318 z"
       id="path3357"
       inkscape:connector-curvature="0" />
    <path
       style="fill:#040404;fill-opacity:1;stroke:#000000;stroke-width:0.57071579px;stroke-linecap:butt;stroke-linejoin:miter;stroke-opacity:1"
       d="M -25.522167,-32.917098 -27.317475,-32.917098 -27.230598,-27.125788 -27.809736,-27.183697 -29.112773,-28.834225 -30.010428,-28.979004 -31.342428,-26.749349 -31.921566,-26.691439 -31.834699,-31.295534 -32.413827,-31.614057 -34.151221,-31.671967 -33.456263,-22.782303 -32.384875,-22.782303 -31.342428,-23.419348 -29.460252,-26.66248 -28.852172,-26.60457 -26.680422,-23.853697 -24.943039,-23.853697 z"
       id="path3359"
       inkscape:connector-curvature="0" />
    <path
       style="fill:#040404;fill-opacity:1;stroke:#000000;stroke-width:0.57071579px;stroke-linecap:butt;stroke-linejoin:miter;stroke-opacity:1"
       d="M -35.280524,-31.758835 -34.759311,-22.782303 -40.203142,-22.05839 -40.232094,-23.853697 -37.307482,-24.114302 -36.902099,-24.490741 -36.902099,-26.083352 -40.261057,-25.504219 -40.290009,-27.183697 -37.017918,-27.762832 -36.960014,-29.442312 -40.869147,-29.587097 C -40.869147,-29.587097 -41.071844,-31.179708 -40.840185,-31.121792 -40.608536,-31.063881 -35.280524,-31.758835 -35.280524,-31.758835 z"
       id="path3361"
       inkscape:connector-curvature="0" />
    <path
       style="fill:#040404;fill-opacity:1;stroke:#000000;stroke-width:0.57071579px;stroke-linecap:butt;stroke-linejoin:miter;stroke-opacity:1"
       d="M -41.50619,-30.600573 -41.071844,-26.981003 -41.042881,-22.145259 -41.766791,-21.479256 -45.386361,-21.624041 -46.57359,-22.782303 -46.515675,-25.562135 -46.052366,-25.76483 -46.052366,-26.60457 -47.152717,-27.531178 -49.063856,-30.079356 -46.718371,-30.050398 -44.314972,-27.096829 -43.156706,-27.270567 -43.185669,-30.571615 z"
       id="path3363"
       inkscape:connector-curvature="0" />
    <path
       style="fill:#495062;fill-opacity:1;stroke:#000000;stroke-width:0.57071579px;stroke-linecap:butt;stroke-linejoin:miter;stroke-opacity:1"
       d="M -42.664445,-23.071867 -43.185669,-24.954043 -44.488717,-25.011959 -44.923063,-24.259088 -44.633499,-23.564127 -44.28602,-23.274563 z"
       id="path3365"
       inkscape:connector-curvature="0" />
    <path
       style="fill:#040404;fill-opacity:1;stroke:#000000;stroke-width:0.57071579px;stroke-linecap:butt;stroke-linejoin:miter;stroke-opacity:1"
       d="M -48.976989,-30.050398 -50.540638,-29.934571 -50.56959,-26.083352 -54.739335,-25.47526 -54.710383,-28.313007 -55.376378,-28.950052 -56.853171,-28.805267 -56.331947,-19.799776 -55.260559,-19.799776 -54.18917,-20.465773 -54.623506,-21.073866 -54.623506,-23.911607 -50.511675,-24.490741 -50.540638,-21.797779 -49.9615,-21.102818 -48.455765,-20.986997 z"
       id="path3367"
       inkscape:connector-curvature="0" />
    <path
       style="fill:#040404;fill-opacity:1;stroke:#000000;stroke-width:0.57071579px;stroke-linecap:butt;stroke-linejoin:miter;stroke-opacity:1"
       d="M -58.098304,-28.863177 -57.57708,-19.886645 -63.194656,-19.249601 -63.107788,-20.842212 -59.690916,-21.479256 -59.777783,-23.245604 -63.049874,-22.695434 C -63.049874,-22.695434 -63.686916,-24.230129 -63.107788,-24.316998 -62.52865,-24.403866 -59.633001,-24.838215 -59.633001,-24.838215 L -59.74882,-26.633522 -63.339437,-26.691439 -63.397352,-28.313007 z"
       id="path3369"
       inkscape:connector-curvature="0" />
    <path
       style="fill:#000000;fill-opacity:1;stroke:#000000;stroke-width:0.57071579px;stroke-linecap:butt;stroke-linejoin:miter;stroke-opacity:1"
       d="M -63.773783,-27.675964 -65.30848,-27.762832 -66.032401,-26.315 -66.032401,-25.533176 -67.248582,-25.127786 -69.449273,-25.011959 -70.752321,-27.125788 -72.287018,-27.212656 -72.258066,-26.170221 C -72.258066,-26.170221 -68.20414,-18.757341 -68.088321,-18.728383 -67.972491,-18.699425 -66.698406,-18.670467 -66.698406,-18.670467 L -63.426315,-26.401874 z"
       id="path3371"
       inkscape:connector-curvature="0" />
    <path
       style="fill:#495062;fill-opacity:1;stroke:#000000;stroke-width:0.57071579px;stroke-linecap:butt;stroke-linejoin:miter;stroke-opacity:1"
       d="M -66.930055,-23.332479 -68.580571,-23.071867 -68.20414,-22.55065 -67.740832,-21.566124 -66.930055,-21.537167 z"
       id="path3373"
       inkscape:connector-curvature="0" />
    <path
       style="fill:#000000;fill-opacity:1;stroke:#000000;stroke-width:0.57071579px;stroke-linecap:butt;stroke-linejoin:miter;stroke-opacity:1"
       d="M -72.605534,-26.488743 -72.171189,-18.265076 -73.010939,-17.65699 -78.541636,-17.599074 -80.307982,-19.510207 -80.684424,-20.552648 -80.655472,-23.245604 -80.250067,-24.461783 -78.454769,-25.996478 -76.65946,-26.459785 z"
       id="path3375"
       inkscape:connector-curvature="0" />
    <path
       style="fill:#495062;fill-opacity:1;stroke:#000000;stroke-width:0.57071579px;stroke-linecap:butt;stroke-linejoin:miter;stroke-opacity:1"
       d="M -74.458758,-25.011959 -76.225104,-24.954043 -78.541636,-23.853697 -79.091812,-21.76882 -77.557115,-19.278559 -73.995449,-19.249601 z"
       id="path3377"
       inkscape:connector-curvature="0" />
    <path
       style="fill:#535b6d;fill-opacity:1;stroke:#000000;stroke-width:0.57071579px;stroke-linecap:butt;stroke-linejoin:miter;stroke-opacity:1"
       d="M 16.609642,-43.746858 -21.960512,-59.383398 -127.59406,-42.299027 -127.36241,-22.376913 z"
       id="path3461"
       inkscape:connector-curvature="0" />
    <path
       style="fill:#73615d;fill-opacity:1;stroke:#000000;stroke-width:0.57071579px;stroke-linecap:butt;stroke-linejoin:miter;stroke-opacity:1"
       d="M -127.07285,-14.964027 -137.84469,-14.906116 -137.84469,3.6839988 -127.01493,3.5681718 z"
       id="path3463"
       inkscape:connector-curvature="0" />
    <path
       style="fill:#372f36;fill-opacity:1;stroke:#000000;stroke-width:0.57071579px;stroke-linecap:butt;stroke-linejoin:miter;stroke-opacity:1"
       d="M -127.24658,3.5102618 -137.9026,3.6839988 -137.72886,21.521246 -127.07285,21.463331 z"
       id="path3465"
       inkscape:connector-curvature="0" />
    <path
       style="fill:#372f36;fill-opacity:1;stroke:#000000;stroke-width:0.57071579px;stroke-linecap:butt;stroke-linejoin:miter;stroke-opacity:1"
       d="M -137.84469,3.0469548 -160.14125,3.0469548 -160.14125,-30.079356 -137.61304,-29.963529 z"
       id="path3467"
       inkscape:connector-curvature="0" />
    <path
       style="fill:#4b424d;fill-opacity:1;stroke:#000000;stroke-width:0.57071579px;stroke-linecap:butt;stroke-linejoin:miter;stroke-opacity:1"
       d="M -139.06086,-43.804769 -138.59756,-48.611561 -137.4393,-48.727387 -137.55512,-30.137272 -139.17669,-30.137272 z"
       id="path3469"
       inkscape:connector-curvature="0" />
    <path
       style="fill:#4a3f45;fill-opacity:1;stroke:#000000;stroke-width:0.57071579px;stroke-linecap:butt;stroke-linejoin:miter;stroke-opacity:1"
       d="M -138.53965,-48.669472 C -138.53965,-48.379907 -139.00296,-43.804769 -139.00296,-43.804769 L -160.02542,-43.804769 -159.85168,-48.843214 z"
       id="path3471"
       inkscape:connector-curvature="0" />
    <path
       style="fill:#73615d;fill-opacity:1;stroke:#000000;stroke-width:0.57071579px;stroke-linecap:butt;stroke-linejoin:miter;stroke-opacity:1"
       d="M -139.17669,-43.920596 -139.35042,-30.021446 -160.02542,-29.963529 -159.96751,-43.920596 z"
       id="path3473"
       inkscape:connector-curvature="0" />
    <path
       style="fill:#151515;fill-opacity:1;stroke:#000000;stroke-width:0.57071579px;stroke-linecap:butt;stroke-linejoin:miter;stroke-opacity:1"
       d="M -159.79377,-53.881653 -160.08333,-43.862679 -160.19916,-22.55065 -191.93556,-22.666477 -191.81973,-53.765825 z"
       id="path3475"
       inkscape:connector-curvature="0" />
    <path
       style="fill:#0a0a0c;fill-opacity:1;stroke:#000000;stroke-width:0.57071579px;stroke-linecap:butt;stroke-linejoin:miter;stroke-opacity:1"
       d="M -160.08333,-22.666477 -191.99346,-22.60856 -191.99346,2.4099098 -160.14125,2.2940828 z"
       id="path3477"
       inkscape:connector-curvature="0" />
    <path
       style="fill:#151515;fill-opacity:1;stroke:#000000;stroke-width:0.57071579px;stroke-linecap:butt;stroke-linejoin:miter;stroke-opacity:1"
       d="M -160.14125,4.2631318 -160.08333,2.3519988 -191.93556,2.5836528 -191.87764,4.3789598 z"
       id="path3479"
       inkscape:connector-curvature="0" />
    <path
       style="fill:#0a0a0c;fill-opacity:1;stroke:#000000;stroke-width:0.57071579px;stroke-linecap:butt;stroke-linejoin:miter;stroke-opacity:1"
       d="M -160.25708,7.6800078 -160.14125,4.3210428 -192.05138,4.4368698 -191.93556,7.5062658 z"
       id="path3481"
       inkscape:connector-curvature="0" />
    <path
       style="fill:#151515;fill-opacity:1;stroke:#000000;stroke-width:0.57071579px;stroke-linecap:butt;stroke-linejoin:miter;stroke-opacity:1"
       d="M -160.25708,35.072918 -191.93556,35.188748 -191.81973,7.4483548 -160.14125,7.7379188 z"
       id="path3483"
       inkscape:connector-curvature="0" />
    <path
       style="fill:#0a0a0c;fill-opacity:1;stroke:#000000;stroke-width:0.57071579px;stroke-linecap:butt;stroke-linejoin:miter;stroke-opacity:1"
       d="M -160.31498,35.072918 -191.93556,35.304567 -191.93556,60.496783 -159.96751,60.323049 z"
       id="path3485"
       inkscape:connector-curvature="0" />
    <path
       style="fill:#73615d;fill-opacity:1;stroke:#000000;stroke-width:0.57071579px;stroke-linecap:butt;stroke-linejoin:miter;stroke-opacity:1"
       d="M -137.78677,2.9890438 -160.14125,3.1627808 -160.25708,36.115354 -137.55512,36.057439 z"
       id="path3487"
       inkscape:connector-curvature="0" />
    <path
       style="fill:#5a4f5b;fill-opacity:1;stroke:#000000;stroke-width:0.57071579px;stroke-linecap:butt;stroke-linejoin:miter;stroke-opacity:1"
       d="M -137.67095,36.231184 -137.72886,55.168772 -138.42382,55.110867 -139.2346,50.477814 -139.00296,35.999525 z"
       id="path3489"
       inkscape:connector-curvature="0" />
    <path
       style="fill:#372f36;fill-opacity:1;stroke:#000000;stroke-width:0.57071579px;stroke-linecap:butt;stroke-linejoin:miter;stroke-opacity:1"
       d="M -139.06086,36.057439 -139.35042,50.361984 -160.08333,50.419899 -160.31498,36.231184 z"
       id="path3491"
       inkscape:connector-curvature="0" />
    <path
       style="fill:#8a7875;fill-opacity:1;stroke:#000000;stroke-width:0.57071579px;stroke-linecap:butt;stroke-linejoin:miter;stroke-opacity:1"
       d="M -139.40834,50.361984 -138.3659,55.284601 -160.19916,55.342516 -160.14125,50.361984 z"
       id="path3493"
       inkscape:connector-curvature="0" />
    <path
       style="fill:#2e3348;fill-opacity:1;stroke:#000000;stroke-width:0.57071579px;stroke-linecap:butt;stroke-linejoin:miter;stroke-opacity:1"
       d="M 20.779387,-21.681952 20.837302,14.977064 176.56572,10.981053 176.5078,32.582652 174.53875,34.841269 156.41194,46.481802 138.69053,51.172771 6.185268,70.168274 7.111885,71.036976 20.258164,73.006019 203.20576,69.299582 203.26367,-27.415352 z"
       id="path3495"
       inkscape:connector-curvature="0" />
    <path
       style="fill:#010101;fill-opacity:1;stroke:#000000;stroke-width:0.57071579px;stroke-linecap:butt;stroke-linejoin:miter;stroke-opacity:1"
       d="M 179.95363,-17.541163 179.89572,-2.1362702 170.86127,-2.2520962 168.74745,-3.2655742 167.47335,-5.118797 167.4444,-6.016447 168.37101,-8.072365 170.10841,-8.941063 170.13736,-9.578108 168.08145,-9.722892 166.45988,-10.73637 165.85179,-11.981501 165.82283,-14.008461 166.60466,-15.398376 169.18179,-16.759333 172.91719,-17.425337 z"
       id="path3497"
       inkscape:connector-curvature="0" />
    <path
       style="fill:#2e3348;fill-opacity:1;stroke:#000000;stroke-width:0.57071579px;stroke-linecap:butt;stroke-linejoin:miter;stroke-opacity:1"
       d="M 177.1159,-15.282549 177.14485,-10.649501 170.31111,-10.707411 169.06596,-11.257587 169.06596,-14.124287 170.86127,-15.224638 z"
       id="path3499"
       inkscape:connector-curvature="0" />
    <path
       style="fill:#2e3348;fill-opacity:1;stroke:#000000;stroke-width:0.57071579px;stroke-linecap:butt;stroke-linejoin:miter;stroke-opacity:1"
       d="M 177.08694,-8.419845 171.96162,-8.390888 170.89023,-7.232626 170.7744,-5.089838 172.54076,-3.989487 177.1159,-3.873666 z"
       id="path3501"
       inkscape:connector-curvature="0" />
    <path
       style="fill:#010101;fill-opacity:1;stroke:#000000;stroke-width:0.57071579px;stroke-linecap:butt;stroke-linejoin:miter;stroke-opacity:1"
       d="M 162.86926,-16.933077 159.97361,-16.904119 160.00256,-9.549149 152.03951,-9.549149 152.06846,-7.869669 159.97361,-7.840712 160.00256,-3.931576 158.67056,-3.2655742 152.01055,-3.2366212 152.01055,-1.6150532 162.78239,-1.5571362 z"
       id="path3503"
       inkscape:connector-curvature="0" />
    <path
       style="fill:#010101;fill-opacity:1;stroke:#000000;stroke-width:0.57071579px;stroke-linecap:butt;stroke-linejoin:miter;stroke-opacity:1"
       d="M 149.72298,-15.166723 149.63611,-13.023936 148.76741,-13.110811 147.8408,-14.008461 146.16133,-14.529678 142.7734,-14.645504 141.58619,-13.689938 140.68853,-12.908115 141.15184,-11.199676 147.08793,-8.448804 149.49132,-6.653492 149.52028,-3.844708 148.4489,-2.1652282 146.07446,-1.0938352 140.60167,-1.0359192 138.86426,-1.6150532 138.86426,-4.308009 142.25219,-2.6285292 144.68454,-2.7733152 146.82733,-3.757839 146.88524,-6.219143 141.70202,-8.130281 138.22722,-10.707411 138.34305,-13.979502 140.1094,-15.803767 141.49932,-16.353943 147.92767,-16.180206 z"
       id="path3505"
       inkscape:connector-curvature="0" />
    <path
       style="fill:#010101;fill-opacity:1;stroke:#000000;stroke-width:0.57071579px;stroke-linecap:butt;stroke-linejoin:miter;stroke-opacity:1"
       d="M 135.99756,-12.444807 130.23522,-12.357939 130.35104,-11.807764 128.61364,-11.778805 128.55573,-10.099325 136.05548,-10.128284 z"
       id="path3507"
       inkscape:connector-curvature="0" />
    <path
       style="fill:#010101;fill-opacity:1;stroke:#000000;stroke-width:0.57071579px;stroke-linecap:butt;stroke-linejoin:miter;stroke-opacity:1"
       d="M 121.20077,-15.803767 118.36301,-15.774814 118.30511,-0.4567902 121.17181,-0.4567902 z"
       id="path3509"
       inkscape:connector-curvature="0" />
    <path
       style="fill:#000000;fill-opacity:1;stroke:#000000;stroke-width:0.57071579px;stroke-linecap:butt;stroke-linejoin:miter;stroke-opacity:1"
       d="M 110.34205,-12.386891 110.25518,-14.645504 109.67604,-15.13777 102.92917,-15.13777 99.541248,-12.242113 99.570208,-8.912105 101.33655,-7.319494 102.32108,-7.232626 102.32108,-6.740366 101.33655,-6.682449 100.12038,-5.321493 100.06247,-1.5281842 101.85778,-0.5436592 102.92917,0.0644268 108.69152,0.0354748 109.67604,-0.5436592 109.73396,-2.5706192 109.12587,-2.5127032 109.06796,-2.0783542 104.05848,-1.9914852 102.92917,-2.6574882 102.92917,-5.49523 104.14535,-5.987495 106.89621,-6.132274 106.86726,-8.304018 103.94265,-8.564625 102.90021,-9.027931 102.379,-10.273062 102.29212,-11.836721 103.68204,-12.908115 104.66656,-13.429332 107.41744,-13.603069 107.59118,-12.994983 109.82084,-12.705414 z"
       id="path3511"
       inkscape:connector-curvature="0" />
    <path
       style="fill:#515b82;fill-opacity:1;stroke:#000000;stroke-width:0.57071579px;stroke-linecap:butt;stroke-linejoin:miter;stroke-opacity:1"
       d="M 203.23472,69.212715 203.20576,72.455843 176.9132,72.282109 177.05797,71.529237 25.52826,73.179763 z"
       id="path3513"
       inkscape:connector-curvature="0" />
    <path
       style="fill:#372f36;fill-opacity:1;stroke:#000000;stroke-width:0.57071579px;stroke-linecap:butt;stroke-linejoin:miter;stroke-opacity:1"
       d="M 177.20277,71.384455 176.10241,73.700976 156.35404,85.862733 135.44739,90.437872 -92.614532,117.07792 16.310912,72.540991 20.40598,73.196207 z"
       id="path3515"
       inkscape:connector-curvature="0" />
    <path
       style="fill:#554845;fill-opacity:1;stroke:#000000;stroke-width:0.57071579px;stroke-linecap:butt;stroke-linejoin:miter;stroke-opacity:1"
       d="M 16.147097,72.500051 7.09699,71.107717 6.196068,70.124893 -55.189139,79.175021 -92.618139,94.163002 -92.536237,117.01353 z"
       id="path3517"
       inkscape:connector-curvature="0" />
    <path
       style="fill:#50444d;fill-opacity:1;stroke:#000000;stroke-width:0.57071579px;stroke-linecap:butt;stroke-linejoin:miter;stroke-opacity:1"
       d="M 139.04036,51.246589 134.69959,30.443599 151.98081,26.553275 156.44444,46.455354 z"
       id="path3519"
       inkscape:connector-curvature="0" />
    <path
       style="fill:#584a52;fill-opacity:1;stroke:#000000;stroke-width:0.57071579px;stroke-linecap:butt;stroke-linejoin:miter;stroke-opacity:1"
       d="M 174.74944,12.793825 174.74944,34.538688 176.51032,32.654942 176.59222,10.869138 z"
       id="path3521"
       inkscape:connector-curvature="0" />
    <path
       style="fill:#5a4c54;fill-opacity:1;stroke:#000000;stroke-width:0.57071579px;stroke-linecap:butt;stroke-linejoin:miter;stroke-opacity:1"
       d="M 174.70849,12.670972 151.93985,26.635177 156.52634,46.578207 174.79039,34.620579 z"
       id="path3523"
       inkscape:connector-curvature="0" />
    <path
       style="fill:#443a42;fill-opacity:1;stroke:#000000;stroke-width:0.57071579px;stroke-linecap:butt;stroke-linejoin:miter;stroke-opacity:1"
       d="M -90.857256,84.293864 -90.939158,62.016649 134.74054,30.525511 139.08131,51.246589 -55.516747,79.256923 z"
       id="path3525"
       inkscape:connector-curvature="0" />
    <path
       style="fill:#73615d;fill-opacity:1;stroke:#000000;stroke-width:0.57071579px;stroke-linecap:butt;stroke-linejoin:miter;stroke-opacity:1"
       d="M -91.02106,62.0576 134.90434,30.525511 152.02176,26.594236 174.70849,12.834776 176.51032,11.114834 15.328088,15.209923 z"
       id="path3527"
       inkscape:connector-curvature="0" />
    <path
       style="fill:#2d3248;fill-opacity:1;stroke:#000000;stroke-width:0.57071579px;stroke-linecap:butt;stroke-linejoin:miter;stroke-opacity:1"
       d="M -79.513894,56.979708 -127.59009,49.362864 -127.5082,21.598236 -127.01679,21.516334 -127.01679,-7.0673 20.733588,-21.727677 20.897392,14.964217 15.164284,15.209923 z"
       id="path3529"
       inkscape:connector-curvature="0" />
  </g>
</svg>
